<?xml version="1.0" encoding="utf-8"?>
<!-- Generator: Adobe Illustrator 27.0.0, SVG Export Plug-In . SVG Version: 6.00 Build 0)  -->
<svg version="1.1" id="Capa_1" xmlns="http://www.w3.org/2000/svg" xmlns:xlink="http://www.w3.org/1999/xlink" x="0px" y="0px"
	 viewBox="0 0 566.93 368.5" style="enable-background:new 0 0 566.93 368.5;" xml:space="preserve">
<style type="text/css">
	.st0{fill:#FFFFFF;}
	.st1{fill:#1F3A20;}
	.st2{fill:#B9AB83;}
	.st3{fill:none;stroke:#000000;stroke-linecap:round;stroke-linejoin:round;stroke-miterlimit:10;}
	.st4{fill:#B3A984;stroke:#222220;stroke-miterlimit:10;}
	.st5{fill:#FFFFFF;stroke:#1F3920;stroke-width:0.5;stroke-miterlimit:10;}
	.st6{fill:#535E53;stroke:#1F3920;stroke-width:0.5;stroke-miterlimit:10;}
	.st7{fill:#E5D5C1;stroke:#1F3920;stroke-width:0.5;stroke-miterlimit:10;}
</style>
<rect x="0.18" y="-0.42" class="st0" width="566.93" height="368.5"/>
<g>
	<g>
		<g>
			<path class="st1" d="M224.18,40.02h1.63v14.2h-1.63V40.02z M225.16,40.02h5.13v1.53h-5.13V40.02z M225.16,46.52h4.64v1.54h-4.64
				V46.52z"/>
			<path class="st1" d="M233.18,53.95c-0.53-0.28-0.93-0.69-1.21-1.22s-0.42-1.18-0.42-1.93v-7.34c0-0.75,0.14-1.4,0.42-1.94
				s0.68-0.94,1.21-1.22s1.16-0.42,1.9-0.42s1.38,0.14,1.9,0.42s0.93,0.68,1.21,1.22s0.42,1.18,0.42,1.94v7.34
				c0,0.75-0.14,1.4-0.42,1.93s-0.68,0.94-1.21,1.22s-1.16,0.42-1.9,0.42S233.7,54.23,233.18,53.95z M236.1,52.55
				c0.28-0.15,0.5-0.37,0.65-0.65s0.22-0.63,0.22-1.04v-7.48c0-0.4-0.07-0.75-0.22-1.04s-0.37-0.5-0.65-0.65s-0.62-0.22-1.02-0.22
				s-0.74,0.08-1.02,0.22s-0.5,0.37-0.65,0.65s-0.22,0.63-0.22,1.04v7.48c0,0.4,0.07,0.75,0.22,1.04s0.37,0.5,0.65,0.65
				s0.62,0.22,1.02,0.22S235.82,52.7,236.1,52.55z"/>
			<path class="st1" d="M240.56,40.01h1.63v14.21h-1.63V40.01z M241.43,46.68h2.63c0.38,0,0.7-0.07,0.97-0.21s0.47-0.34,0.62-0.62
				s0.21-0.59,0.21-0.96v-1.46c0-0.39-0.07-0.73-0.21-1.02s-0.35-0.5-0.62-0.65s-0.59-0.22-0.97-0.22h-2.63v-1.53h2.49
				c0.75,0,1.39,0.12,1.92,0.38s0.94,0.62,1.22,1.1s0.42,1.07,0.42,1.74v1.66c0,0.7-0.14,1.29-0.42,1.79s-0.68,0.88-1.22,1.14
				s-1.18,0.39-1.93,0.39h-2.49V46.68z M244.11,47.77l1.5-0.45l2.27,6.89h-1.84L244.11,47.77z"/>
			<path class="st1" d="M257.23,40.02h1.5v14.2h-1.52V43.14l0.13,0.62l-2.58,8.31h-1.19L251,43.96l0.16-0.82v11.08h-1.56v-14.2h1.54
				l3.03,9.64L257.23,40.02z"/>
			<path class="st1" d="M263.28,40.02h1.7l3.28,14.2h-1.78l-2.35-11.96l-2.35,11.96H260L263.28,40.02z M261.96,49.41h4.52v1.53
				h-4.52V49.41z"/>
			<path class="st1" d="M269.53,40.02h1.63v14.2h-1.63V40.02z M270.53,52.69h4.9v1.53h-4.9V52.69z"/>
			<path class="st1" d="M279.83,40.02h1.63v14.2h-1.63V40.02z M280.79,52.69h3.03c0.35,0,0.61-0.1,0.79-0.3s0.27-0.49,0.27-0.86
				v-8.81c0-0.37-0.09-0.66-0.27-0.86s-0.44-0.3-0.79-0.3h-3.03v-1.53h2.97c0.59,0,1.08,0.11,1.49,0.32s0.72,0.52,0.93,0.94
				s0.32,0.91,0.32,1.5v8.69c0,0.59-0.11,1.08-0.32,1.49s-0.53,0.72-0.94,0.94s-0.91,0.32-1.49,0.32h-2.96V52.69z"/>
			<path class="st1" d="M288.46,40.02h1.63v14.2h-1.63V40.02z M289.43,40.02h5.13v1.53h-5.13V40.02z M289.43,46.4h4.64v1.54h-4.64
				V46.4z M289.43,52.69h5.13v1.53h-5.13V52.69z"/>
			<path class="st1" d="M299.28,53.99c-0.5-0.25-0.9-0.61-1.21-1.07l1.19-1.02c0.22,0.29,0.48,0.51,0.79,0.66s0.62,0.23,0.95,0.23
				c0.46,0,0.81-0.14,1.06-0.43s0.38-0.69,0.38-1.22V40.02h1.63v11.15c0,0.67-0.12,1.25-0.37,1.72s-0.61,0.84-1.08,1.09
				s-1.04,0.38-1.71,0.38C300.32,54.37,299.77,54.24,299.28,53.99z"/>
			<path class="st1" d="M308.23,40.02h1.7l3.28,14.2h-1.78l-2.35-11.96l-2.35,11.96h-1.78L308.23,40.02z M306.92,49.41h4.52v1.53
				h-4.52V49.41z"/>
			<path class="st1" d="M314.48,40.01h1.63v14.21h-1.63V40.01z M315.35,46.68h2.63c0.38,0,0.7-0.07,0.97-0.21s0.47-0.34,0.62-0.62
				s0.21-0.59,0.21-0.96v-1.46c0-0.39-0.07-0.73-0.21-1.02s-0.34-0.5-0.62-0.65s-0.59-0.22-0.97-0.22h-2.63v-1.53h2.49
				c0.75,0,1.39,0.12,1.92,0.38s0.94,0.62,1.22,1.1s0.42,1.07,0.42,1.74v1.66c0,0.7-0.14,1.29-0.42,1.79s-0.68,0.88-1.22,1.14
				s-1.18,0.39-1.93,0.39h-2.49V46.68z M318.04,47.77l1.5-0.45l2.27,6.89h-1.84L318.04,47.77z"/>
			<path class="st1" d="M323.52,40.02h1.63v14.2h-1.63V40.02z M324.48,52.69h3.03c0.34,0,0.61-0.1,0.79-0.3s0.27-0.49,0.27-0.86
				v-8.81c0-0.37-0.09-0.66-0.27-0.86s-0.44-0.3-0.79-0.3h-3.03v-1.53h2.97c0.59,0,1.08,0.11,1.49,0.32s0.72,0.52,0.93,0.94
				s0.32,0.91,0.32,1.5v8.69c0,0.59-0.11,1.08-0.32,1.49s-0.53,0.72-0.94,0.94s-0.91,0.32-1.49,0.32h-2.96V52.69z"/>
			<path class="st1" d="M332.09,38.17l2.44-2.5l1.24,1.19l-2.66,2.28L332.09,38.17z M333.88,54.22h-1.64v-14.2h1.64V54.22z"/>
			<path class="st1" d="M335.92,40.02h1.47l4.19,11.27l-0.27,0.25V40.02h1.58v14.19h-1.49l-4.17-11.1l0.27-0.25v11.36h-1.58V40.02z"
				/>
		</g>
	</g>
	<g>
		<path class="st1" d="M187.93,0.6h3.42l4.22,23.5l4.22-23.5h3.42L197.48,29h-3.83L187.93,0.6z"/>
		<path class="st1" d="M209.35,0.6h3.26V29h-3.26V0.6z M211.28,0.6h10.25v3.07h-10.25V0.6z M211.28,13.36h9.28v3.09h-9.28V13.36z
			 M211.28,25.93h10.25V29h-10.25V25.93z"/>
		<path class="st1" d="M231.37,28.54c-1.02-0.5-1.79-1.25-2.31-2.24c-0.52-0.99-0.78-2.21-0.78-3.67v-1.41l3.24-0.02v1.35
			c0,1.2,0.31,2.1,0.93,2.71c0.62,0.61,1.53,0.92,2.74,0.92c1.18,0,2.08-0.3,2.68-0.91c0.6-0.61,0.9-1.51,0.9-2.72v-2.07
			c0-0.81-0.19-1.49-0.56-2.05s-0.84-1.03-1.42-1.41c-0.57-0.38-1.33-0.79-2.27-1.23c-0.04-0.01-0.07-0.03-0.1-0.04
			c-0.03-0.01-0.05-0.03-0.08-0.04l-0.25-0.12c-1.25-0.6-2.26-1.16-3.04-1.68c-0.77-0.52-1.43-1.23-1.96-2.14
			c-0.53-0.91-0.8-2.03-0.8-3.39V6.87c0-1.43,0.26-2.64,0.77-3.61c0.51-0.98,1.28-1.71,2.3-2.21c1.02-0.5,2.29-0.74,3.8-0.74
			c1.46,0,2.68,0.25,3.67,0.75c0.99,0.5,1.74,1.25,2.25,2.24s0.76,2.21,0.76,3.65v1.48h-3.22V7.03c-0.01-1.18-0.31-2.08-0.88-2.7
			c-0.57-0.61-1.43-0.92-2.58-0.92c-1.2,0-2.1,0.29-2.71,0.86c-0.61,0.57-0.92,1.43-0.92,2.56v1.58c0,0.81,0.19,1.48,0.58,2.03
			c0.38,0.55,0.86,1,1.43,1.35s1.35,0.75,2.35,1.21c0.1,0.05,0.2,0.1,0.28,0.15c0.08,0.05,0.17,0.09,0.26,0.13
			c0.06,0.03,0.13,0.05,0.19,0.08s0.11,0.05,0.17,0.08c1.09,0.52,2,1.04,2.71,1.55c0.72,0.51,1.31,1.21,1.79,2.1
			c0.48,0.89,0.71,2,0.71,3.34v2.21c0,1.46-0.26,2.68-0.77,3.67c-0.51,0.99-1.28,1.74-2.29,2.24c-1.01,0.5-2.26,0.75-3.76,0.75
			C233.66,29.29,232.39,29.04,231.37,28.54z"/>
		<path class="st1" d="M247.76,0.6h13.79v3.07h-13.79V0.6z M253.02,2.93h3.28V29h-3.28V2.93z"/>
		<path class="st1" d="M270.96,29h-3.28V0.6h3.28V29z"/>
		<path class="st1" d="M294.32,0.6h3.01V29h-3.05V6.83l0.25,1.25l-5.16,16.62h-2.38l-5.14-16.23l0.31-1.64V29h-3.12V0.6h3.09
			l6.05,19.28L294.32,0.6z"/>
		<path class="st1" d="M305.23,0.6h3.26V29h-3.26V0.6z M307.16,0.6h10.25v3.07h-10.25V0.6z M307.16,13.36h9.28v3.09h-9.28V13.36z
			 M307.16,25.93h10.25V29h-10.25V25.93z"/>
		<path class="st1" d="M324.35,0.6h2.95l8.38,22.54l-0.55,0.51V0.6h3.16v28.38h-2.99l-8.34-22.21l0.55-0.51v22.71h-3.16V0.6z"/>
		<path class="st1" d="M344.25,0.6h13.79v3.07h-13.79V0.6z M349.5,2.93h3.28V29h-3.28V2.93z"/>
		<path class="st1" d="M368.79,0.6h3.4l6.56,28.4h-3.55l-4.71-23.93L365.78,29h-3.55L368.79,0.6z M366.16,19.39h9.04v3.07h-9.04
			V19.39z"/>
	</g>
	<g>
		<g>
			<g>
				<path class="st1" d="M72.27,216.92c-0.49-0.29-0.87-0.7-1.13-1.25s-0.39-1.2-0.39-1.96v-7.22c0-0.77,0.13-1.42,0.39-1.97
					s0.64-0.96,1.13-1.25s1.09-0.43,1.78-0.43s1.29,0.14,1.79,0.43s0.87,0.7,1.13,1.25s0.39,1.2,0.39,1.96v0.57h-1.64v-0.57
					c0-0.43-0.06-0.8-0.2-1.11s-0.32-0.54-0.57-0.7s-0.55-0.24-0.9-0.24s-0.65,0.08-0.9,0.24s-0.44,0.39-0.57,0.7
					s-0.2,0.68-0.2,1.12v7.22c0,0.43,0.06,0.8,0.2,1.11s0.32,0.54,0.57,0.7s0.55,0.24,0.9,0.24c0.36,0,0.66-0.08,0.9-0.24
					s0.43-0.39,0.56-0.7s0.2-0.68,0.2-1.11v-0.57h1.64v0.57c0,0.76-0.13,1.41-0.39,1.96s-0.63,0.96-1.13,1.25s-1.09,0.43-1.79,0.43
					C73.36,217.35,72.77,217.2,72.27,216.92z"/>
				<path class="st1" d="M81.41,203h1.7l3.28,14.2h-1.78l-2.35-11.96l-2.35,11.96h-1.78L81.41,203z M80.1,212.4h4.52v1.53H80.1
					V212.4z"/>
				<path class="st1" d="M95.3,203h1.5v14.2h-1.52v-11.08l0.13,0.62l-2.58,8.31h-1.19l-2.57-8.12l0.16-0.82v11.08h-1.56V203h1.54
					l3.03,9.64L95.3,203z"/>
				<path class="st1" d="M100.49,217.2h-1.64V203h1.64V217.2z"/>
				<path class="st1" d="M103.98,216.97c-0.51-0.25-0.9-0.62-1.16-1.12s-0.39-1.11-0.39-1.84v-0.7l1.62-0.01v0.67
					c0,0.6,0.15,1.05,0.46,1.36s0.77,0.46,1.37,0.46c0.59,0,1.04-0.15,1.34-0.45s0.45-0.76,0.45-1.36v-1.04
					c0-0.4-0.09-0.75-0.28-1.03s-0.42-0.51-0.71-0.7s-0.66-0.39-1.13-0.62c-0.02-0.01-0.04-0.01-0.05-0.02s-0.03-0.01-0.04-0.02
					l-0.13-0.06c-0.62-0.3-1.13-0.58-1.52-0.84s-0.71-0.62-0.98-1.07s-0.4-1.02-0.4-1.69v-0.76c0-0.72,0.13-1.32,0.39-1.81
					s0.64-0.86,1.15-1.1s1.14-0.37,1.9-0.37c0.73,0,1.34,0.12,1.84,0.38s0.87,0.62,1.12,1.12s0.38,1.1,0.38,1.83v0.74h-1.61v-0.7
					c-0.01-0.59-0.15-1.04-0.44-1.35s-0.72-0.46-1.29-0.46c-0.6,0-1.05,0.14-1.36,0.43s-0.46,0.71-0.46,1.28v0.79
					c0,0.4,0.1,0.74,0.29,1.02s0.43,0.5,0.71,0.67s0.68,0.38,1.18,0.61c0.05,0.03,0.1,0.05,0.14,0.07s0.09,0.04,0.13,0.06
					c0.03,0.01,0.06,0.03,0.09,0.04s0.06,0.03,0.08,0.04c0.55,0.26,1,0.52,1.36,0.78s0.66,0.61,0.89,1.05s0.36,1,0.36,1.67v1.1
					c0,0.73-0.13,1.34-0.39,1.84s-0.64,0.87-1.14,1.12s-1.13,0.38-1.88,0.38C105.12,217.35,104.49,217.22,103.98,216.97z"/>
				<path class="st1" d="M113.36,203h1.7l3.28,14.2h-1.78l-2.35-11.96l-2.35,11.96h-1.78L113.36,203z M112.04,212.4h4.52v1.53h-4.52
					V212.4z"/>
				<path class="st1" d="M130.17,203h1.5v14.2h-1.52v-11.08l0.13,0.62l-2.58,8.31h-1.19l-2.57-8.12l0.16-0.82v11.08h-1.56V203h1.54
					l3.03,9.64L130.17,203z"/>
				<path class="st1" d="M136.23,203h1.7l3.28,14.2h-1.78l-2.35-11.96l-2.35,11.96h-1.78L136.23,203z M134.91,212.4h4.52v1.53h-4.52
					V212.4z"/>
				<path class="st1" d="M142.48,203h1.47l4.19,11.27l-0.27,0.25V203h1.58v14.19h-1.49l-4.17-11.1l0.27-0.25v11.36h-1.58V203z"/>
				<path class="st1" d="M158.28,209.55v4.14c0,0.77-0.13,1.43-0.4,1.97s-0.66,0.96-1.17,1.25s-1.12,0.43-1.84,0.43
					c-0.73,0-1.35-0.13-1.88-0.41s-0.92-0.66-1.19-1.18s-0.41-1.13-0.41-1.86v-7.41c0-0.77,0.13-1.42,0.4-1.97s0.66-0.96,1.17-1.25
					s1.12-0.43,1.84-0.43c0.7,0,1.31,0.14,1.81,0.42s0.88,0.68,1.15,1.21s0.4,1.17,0.4,1.91v0.69h-1.75v-0.69
					c0-0.42-0.06-0.77-0.19-1.06s-0.3-0.51-0.54-0.66s-0.53-0.23-0.87-0.23c-0.37,0-0.69,0.08-0.96,0.24s-0.47,0.4-0.61,0.7
					s-0.21,0.68-0.21,1.11v7.41c0,0.39,0.07,0.73,0.21,1.01s0.35,0.49,0.62,0.63s0.61,0.21,1,0.21c0.38,0,0.7-0.08,0.96-0.24
					s0.47-0.39,0.61-0.69s0.21-0.67,0.21-1.1v-2.66h-1.83v-1.52H158.28z"/>
				<path class="st1" d="M162.54,203h1.7l3.28,14.2h-1.78l-2.35-11.96l-2.35,11.96h-1.78L162.54,203z M161.22,212.4h4.52v1.53h-4.52
					V212.4z"/>
				<path class="st1" d="M171.72,203h1.63v14.2h-1.63V203z M172.71,215.67h4.9v1.53h-4.9V215.67z"/>
				<path class="st1" d="M181.68,203h1.7l3.28,14.2h-1.78l-2.35-11.96l-2.35,11.96h-1.78L181.68,203z M180.36,212.4h4.52v1.53h-4.52
					V212.4z"/>
				<path class="st1" d="M187.93,202.99h1.63v14.21h-1.63V202.99z M188.8,209.66h2.63c0.38,0,0.7-0.07,0.97-0.21
					s0.47-0.34,0.62-0.62s0.21-0.59,0.21-0.96v-1.46c0-0.39-0.07-0.73-0.21-1.02s-0.35-0.5-0.62-0.65s-0.59-0.22-0.97-0.22h-2.63
					v-1.53h2.49c0.75,0,1.39,0.12,1.92,0.38s0.94,0.62,1.22,1.1s0.42,1.07,0.42,1.74v1.66c0,0.7-0.14,1.29-0.42,1.79
					s-0.68,0.88-1.22,1.14s-1.18,0.39-1.93,0.39h-2.49V209.66z M191.48,210.75l1.5-0.45l2.27,6.89h-1.84L191.48,210.75z"/>
				<path class="st1" d="M203.84,209.55v4.14c0,0.77-0.13,1.43-0.4,1.97s-0.66,0.96-1.17,1.25s-1.12,0.43-1.84,0.43
					c-0.73,0-1.35-0.13-1.88-0.41s-0.92-0.66-1.19-1.18s-0.41-1.13-0.41-1.86v-7.41c0-0.77,0.13-1.42,0.4-1.97s0.66-0.96,1.17-1.25
					s1.12-0.43,1.84-0.43c0.7,0,1.31,0.14,1.81,0.42s0.88,0.68,1.15,1.21s0.4,1.17,0.4,1.91v0.69h-1.75v-0.69
					c0-0.42-0.06-0.77-0.19-1.06s-0.3-0.51-0.54-0.66s-0.53-0.23-0.87-0.23c-0.37,0-0.69,0.08-0.96,0.24s-0.47,0.4-0.61,0.7
					s-0.21,0.68-0.21,1.11v7.41c0,0.39,0.07,0.73,0.21,1.01s0.35,0.49,0.62,0.63s0.61,0.21,1,0.21c0.38,0,0.7-0.08,0.96-0.24
					s0.47-0.39,0.61-0.69s0.21-0.67,0.21-1.1v-2.66h-1.83v-1.52H203.84z"/>
				<path class="st1" d="M208.09,203h1.7l3.28,14.2h-1.78l-2.35-11.96l-2.35,11.96h-1.78L208.09,203z M206.77,212.4h4.52v1.53h-4.52
					V212.4z"/>
				<path class="st1" d="M101.72,240.93c-0.53-0.28-0.93-0.69-1.21-1.22s-0.42-1.18-0.42-1.93v-7.34c0-0.75,0.14-1.4,0.42-1.94
					s0.68-0.94,1.21-1.22s1.16-0.42,1.9-0.42s1.38,0.14,1.9,0.42s0.93,0.68,1.21,1.22s0.42,1.18,0.42,1.94v7.34
					c0,0.75-0.14,1.4-0.42,1.93s-0.68,0.94-1.21,1.22s-1.16,0.42-1.9,0.42S102.24,241.21,101.72,240.93z M104.64,239.53
					c0.28-0.15,0.5-0.37,0.65-0.65s0.22-0.63,0.22-1.04v-7.48c0-0.4-0.07-0.75-0.22-1.04s-0.37-0.5-0.65-0.65s-0.62-0.22-1.02-0.22
					s-0.74,0.08-1.02,0.22s-0.5,0.37-0.65,0.65s-0.22,0.63-0.22,1.04v7.48c0,0.4,0.07,0.75,0.22,1.04s0.37,0.5,0.65,0.65
					s0.62,0.22,1.02,0.22S104.36,239.68,104.64,239.53z"/>
				<path class="st1" d="M118.9,233.55v4.14c0,0.77-0.13,1.43-0.4,1.97s-0.66,0.96-1.17,1.25s-1.12,0.43-1.84,0.43
					c-0.73,0-1.35-0.13-1.88-0.41s-0.92-0.66-1.19-1.18s-0.41-1.13-0.41-1.86v-7.41c0-0.77,0.13-1.42,0.4-1.97s0.66-0.96,1.17-1.25
					s1.12-0.43,1.84-0.43c0.7,0,1.31,0.14,1.81,0.42s0.88,0.68,1.15,1.21s0.4,1.17,0.4,1.91v0.69h-1.75v-0.69
					c0-0.42-0.06-0.77-0.19-1.06s-0.3-0.51-0.54-0.66s-0.53-0.23-0.87-0.23c-0.37,0-0.69,0.08-0.96,0.24s-0.47,0.4-0.61,0.7
					s-0.21,0.68-0.21,1.11v7.41c0,0.39,0.07,0.73,0.21,1.01s0.35,0.49,0.62,0.63s0.61,0.21,1,0.21c0.38,0,0.7-0.08,0.96-0.24
					s0.47-0.39,0.61-0.69s0.21-0.67,0.21-1.1v-2.66h-1.83v-1.52H118.9z"/>
				<path class="st1" d="M122.2,240.97c-0.48-0.25-0.84-0.62-1.08-1.12s-0.36-1.11-0.36-1.85V227h1.63v11.08
					c0,0.55,0.14,0.96,0.41,1.25s0.67,0.42,1.19,0.42c0.53,0,0.94-0.14,1.21-0.42s0.41-0.7,0.41-1.25V227h1.63v11.01
					c0,0.74-0.12,1.35-0.37,1.85s-0.61,0.87-1.09,1.12s-1.08,0.38-1.79,0.38C123.28,241.35,122.69,241.22,122.2,240.97z"/>
				<path class="st1" d="M131.38,227h1.7l3.28,14.2h-1.78l-2.35-11.96l-2.35,11.96h-1.78L131.38,227z M130.07,236.4h4.52v1.53h-4.52
					V236.4z"/>
				<path class="st1" d="M139.97,235.24v5.96h-1.64v-5.96l-2.94-8.24h1.66l2.1,6.36l2-6.36h1.66L139.97,235.24z"/>
				<path class="st1" d="M145.31,227h1.7l3.28,14.2h-1.78l-2.35-11.96l-2.35,11.96h-1.78L145.31,227z M143.99,236.4h4.52v1.53h-4.52
					V236.4z"/>
				<path class="st1" d="M151.56,227h1.63v14.2h-1.63V227z M152.73,239.67h2.56c0.42,0,0.74-0.11,0.97-0.32s0.35-0.51,0.35-0.88
					v-2.19c0-0.36-0.06-0.67-0.19-0.93s-0.29-0.46-0.5-0.6s-0.45-0.21-0.73-0.21h-2.46v-1.52h2.46c0.39,0,0.69-0.13,0.91-0.4
					s0.32-0.65,0.32-1.15v-1.75c0-0.38-0.11-0.67-0.32-0.88s-0.51-0.31-0.89-0.31h-2.48V227h2.43c0.61,0,1.13,0.1,1.57,0.31
					s0.76,0.5,0.99,0.9s0.34,0.87,0.34,1.43v1.7c0,0.45-0.06,0.85-0.19,1.19s-0.3,0.63-0.53,0.85s-0.51,0.37-0.84,0.45
					c0.37,0.07,0.69,0.21,0.95,0.44s0.46,0.52,0.6,0.89s0.21,0.79,0.21,1.27v2.07c0,0.57-0.11,1.06-0.33,1.46s-0.54,0.71-0.96,0.92
					s-0.93,0.32-1.53,0.32h-2.7V239.67z"/>
				<path class="st1" d="M159.95,227h1.63v14.2h-1.63V227z M160.92,227h5.13v1.53h-5.13V227z M160.92,233.38h4.64v1.54h-4.64V233.38
					z M160.92,239.67h5.13v1.53h-5.13V239.67z"/>
				<path class="st1" d="M167.51,226.99h1.63v14.21h-1.63V226.99z M168.38,233.66H171c0.38,0,0.7-0.07,0.97-0.21
					s0.47-0.34,0.62-0.62s0.21-0.59,0.21-0.96v-1.46c0-0.39-0.07-0.73-0.21-1.02s-0.35-0.5-0.62-0.65s-0.59-0.22-0.97-0.22h-2.63
					v-1.53h2.49c0.75,0,1.39,0.12,1.92,0.38s0.94,0.62,1.22,1.1s0.42,1.07,0.42,1.74v1.66c0,0.7-0.14,1.29-0.42,1.79
					s-0.68,0.88-1.22,1.14s-1.18,0.39-1.93,0.39h-2.49V233.66z M171.06,234.75l1.5-0.45l2.27,6.89H173L171.06,234.75z"/>
				<path class="st1" d="M178.75,227h1.7l3.28,14.2h-1.78l-2.35-11.96l-2.35,11.96h-1.78L178.75,227z M177.43,236.4h4.52v1.53h-4.52
					V236.4z"/>
				<path class="st1" d="M91.08,288.97c-0.51-0.25-0.9-0.62-1.16-1.12s-0.39-1.11-0.39-1.84v-0.7l1.62-0.01v0.67
					c0,0.6,0.15,1.05,0.46,1.36s0.77,0.46,1.37,0.46c0.59,0,1.04-0.15,1.34-0.45s0.45-0.76,0.45-1.36v-1.04
					c0-0.4-0.09-0.75-0.28-1.03s-0.42-0.51-0.71-0.7s-0.66-0.39-1.13-0.62c-0.02-0.01-0.04-0.01-0.05-0.02s-0.03-0.01-0.04-0.02
					l-0.13-0.06c-0.62-0.3-1.13-0.58-1.52-0.84s-0.71-0.62-0.98-1.07s-0.4-1.02-0.4-1.69v-0.76c0-0.72,0.13-1.32,0.39-1.81
					s0.64-0.86,1.15-1.1s1.14-0.37,1.9-0.37c0.73,0,1.34,0.12,1.84,0.38s0.87,0.62,1.12,1.12s0.38,1.1,0.38,1.83v0.74h-1.61v-0.7
					c-0.01-0.59-0.15-1.04-0.44-1.35s-0.72-0.46-1.29-0.46c-0.6,0-1.05,0.14-1.36,0.43s-0.46,0.71-0.46,1.28v0.79
					c0,0.4,0.1,0.74,0.29,1.02s0.43,0.5,0.71,0.67s0.68,0.38,1.18,0.61c0.05,0.03,0.1,0.05,0.14,0.07s0.09,0.04,0.13,0.06
					c0.03,0.01,0.06,0.03,0.09,0.04s0.06,0.03,0.08,0.04c0.55,0.26,1,0.52,1.36,0.78s0.66,0.61,0.89,1.05s0.36,1,0.36,1.67v1.1
					c0,0.73-0.13,1.34-0.39,1.84s-0.64,0.87-1.14,1.12s-1.13,0.38-1.88,0.38C92.23,289.35,91.59,289.22,91.08,288.97z"/>
				<path class="st1" d="M100.46,275h1.7l3.28,14.2h-1.78l-2.35-11.96l-2.35,11.96h-1.78L100.46,275z M99.14,284.4h4.52v1.53h-4.52
					V284.4z"/>
				<path class="st1" d="M107.94,288.92c-0.49-0.29-0.87-0.7-1.13-1.25s-0.39-1.2-0.39-1.96v-7.22c0-0.77,0.13-1.42,0.39-1.97
					s0.64-0.96,1.13-1.25s1.09-0.43,1.78-0.43s1.29,0.14,1.79,0.43s0.87,0.7,1.13,1.25s0.39,1.2,0.39,1.96v0.57h-1.64v-0.57
					c0-0.43-0.06-0.8-0.2-1.11s-0.32-0.54-0.57-0.7s-0.55-0.24-0.9-0.24s-0.65,0.08-0.9,0.24s-0.44,0.39-0.57,0.7
					s-0.2,0.68-0.2,1.12v7.22c0,0.43,0.06,0.8,0.2,1.11s0.32,0.54,0.57,0.7s0.55,0.24,0.9,0.24c0.36,0,0.66-0.08,0.9-0.24
					s0.43-0.39,0.56-0.7s0.2-0.68,0.2-1.11v-0.57h1.64v0.57c0,0.76-0.13,1.41-0.39,1.96s-0.63,0.96-1.13,1.25s-1.09,0.43-1.79,0.43
					C109.03,289.35,108.44,289.2,107.94,288.92z"/>
				<path class="st1" d="M116.4,288.93c-0.53-0.28-0.93-0.69-1.21-1.22s-0.42-1.18-0.42-1.93v-7.34c0-0.75,0.14-1.4,0.42-1.94
					s0.68-0.94,1.21-1.22s1.16-0.42,1.9-0.42s1.38,0.14,1.9,0.42s0.93,0.68,1.21,1.22s0.42,1.18,0.42,1.94v7.34
					c0,0.75-0.14,1.4-0.42,1.93s-0.68,0.94-1.21,1.22s-1.16,0.42-1.9,0.42S116.93,289.21,116.4,288.93z M119.32,287.53
					c0.28-0.15,0.5-0.37,0.65-0.65s0.22-0.63,0.22-1.04v-7.48c0-0.4-0.07-0.75-0.22-1.04s-0.37-0.5-0.65-0.65s-0.62-0.22-1.02-0.22
					s-0.74,0.08-1.02,0.22s-0.5,0.37-0.65,0.65s-0.22,0.63-0.22,1.04v7.48c0,0.4,0.07,0.75,0.22,1.04s0.37,0.5,0.65,0.65
					s0.62,0.22,1.02,0.22S119.04,287.68,119.32,287.53z"/>
				<path class="st1" d="M130.12,283.24v5.96h-1.64v-5.96l-2.94-8.24h1.66l2.1,6.36l2-6.36h1.66L130.12,283.24z"/>
				<path class="st1" d="M138.2,288.92c-0.49-0.29-0.87-0.7-1.13-1.25s-0.39-1.2-0.39-1.96v-7.22c0-0.77,0.13-1.42,0.39-1.97
					s0.64-0.96,1.13-1.25s1.09-0.43,1.78-0.43s1.29,0.14,1.79,0.43s0.87,0.7,1.13,1.25s0.39,1.2,0.39,1.96v0.57h-1.64v-0.57
					c0-0.43-0.06-0.8-0.2-1.11s-0.32-0.54-0.57-0.7s-0.55-0.24-0.9-0.24s-0.65,0.08-0.9,0.24s-0.44,0.39-0.57,0.7
					s-0.2,0.68-0.2,1.12v7.22c0,0.43,0.06,0.8,0.2,1.11s0.32,0.54,0.57,0.7s0.55,0.24,0.9,0.24c0.36,0,0.66-0.08,0.9-0.24
					s0.43-0.39,0.56-0.7s0.2-0.68,0.2-1.11v-0.57h1.64v0.57c0,0.76-0.13,1.41-0.39,1.96s-0.63,0.96-1.13,1.25s-1.09,0.43-1.79,0.43
					C139.28,289.35,138.69,289.2,138.2,288.92z"/>
				<path class="st1" d="M146.65,288.93c-0.53-0.28-0.93-0.69-1.21-1.22s-0.42-1.18-0.42-1.93v-7.34c0-0.75,0.14-1.4,0.42-1.94
					s0.68-0.94,1.21-1.22s1.16-0.42,1.9-0.42s1.38,0.14,1.9,0.42s0.93,0.68,1.21,1.22s0.42,1.18,0.42,1.94v7.34
					c0,0.75-0.14,1.4-0.42,1.93s-0.68,0.94-1.21,1.22s-1.16,0.42-1.9,0.42S147.18,289.21,146.65,288.93z M149.58,287.53
					c0.28-0.15,0.5-0.37,0.65-0.65s0.22-0.63,0.22-1.04v-7.48c0-0.4-0.07-0.75-0.22-1.04s-0.37-0.5-0.65-0.65s-0.62-0.22-1.02-0.22
					s-0.74,0.08-1.02,0.22s-0.5,0.37-0.65,0.65s-0.22,0.63-0.22,1.04v7.48c0,0.4,0.07,0.75,0.22,1.04s0.37,0.5,0.65,0.65
					s0.62,0.22,1.02,0.22S149.29,287.68,149.58,287.53z"/>
				<path class="st1" d="M154.04,274.99h1.63v14.21h-1.63V274.99z M154.9,281.66h2.63c0.38,0,0.7-0.07,0.97-0.21
					s0.47-0.34,0.62-0.62s0.21-0.59,0.21-0.96v-1.46c0-0.39-0.07-0.73-0.21-1.02s-0.35-0.5-0.62-0.65s-0.59-0.22-0.97-0.22h-2.63
					v-1.53h2.49c0.75,0,1.39,0.12,1.92,0.38s0.94,0.62,1.22,1.1s0.42,1.07,0.42,1.74v1.66c0,0.7-0.14,1.29-0.42,1.79
					s-0.68,0.88-1.22,1.14s-1.18,0.39-1.93,0.39h-2.49V281.66z M157.59,282.75l1.5-0.45l2.27,6.89h-1.84L157.59,282.75z"/>
				<path class="st1" d="M163.07,275h1.63v14.2h-1.63V275z M164.24,287.67h2.56c0.42,0,0.74-0.11,0.97-0.32s0.35-0.51,0.35-0.88
					v-2.19c0-0.36-0.06-0.67-0.19-0.93s-0.29-0.46-0.5-0.6s-0.45-0.21-0.73-0.21h-2.46v-1.52h2.46c0.39,0,0.69-0.13,0.91-0.4
					s0.32-0.65,0.32-1.15v-1.75c0-0.38-0.11-0.67-0.32-0.88s-0.51-0.31-0.89-0.31h-2.48V275h2.43c0.61,0,1.13,0.1,1.57,0.31
					s0.76,0.5,0.99,0.9s0.34,0.87,0.34,1.43v1.7c0,0.45-0.06,0.85-0.19,1.19s-0.3,0.63-0.53,0.85s-0.51,0.37-0.84,0.45
					c0.37,0.07,0.69,0.21,0.95,0.44s0.46,0.52,0.6,0.89s0.21,0.79,0.21,1.27v2.07c0,0.57-0.11,1.06-0.33,1.46s-0.54,0.71-0.96,0.92
					s-0.93,0.32-1.53,0.32h-2.7V287.67z"/>
				<path class="st1" d="M174.05,275h1.7l3.28,14.2h-1.78l-2.35-11.96l-2.35,11.96h-1.78L174.05,275z M172.74,284.4h4.52v1.53h-4.52
					V284.4z"/>
				<path class="st1" d="M178.94,275h6.89v1.53h-6.89V275z M181.56,276.16h1.64v13.04h-1.64V276.16z"/>
				<path class="st1" d="M189.21,275h1.7l3.28,14.2h-1.78l-2.35-11.96l-2.35,11.96h-1.78L189.21,275z M187.89,284.4h4.52v1.53h-4.52
					V284.4z"/>
				<path class="st1" d="M112.26,312.93c-0.53-0.28-0.93-0.69-1.21-1.22s-0.42-1.18-0.42-1.93v-7.34c0-0.75,0.14-1.4,0.42-1.94
					s0.68-0.94,1.21-1.22s1.16-0.42,1.9-0.42s1.38,0.14,1.9,0.42s0.93,0.68,1.21,1.22s0.42,1.18,0.42,1.94v7.34
					c0,0.75-0.14,1.4-0.42,1.93s-0.68,0.94-1.21,1.22s-1.16,0.42-1.9,0.42S112.79,313.21,112.26,312.93z M115.18,311.53
					c0.28-0.15,0.5-0.37,0.65-0.65s0.22-0.63,0.22-1.04v-7.48c0-0.4-0.07-0.75-0.22-1.04s-0.37-0.5-0.65-0.65s-0.62-0.22-1.02-0.22
					s-0.74,0.08-1.02,0.22s-0.5,0.37-0.65,0.65s-0.22,0.63-0.22,1.04v7.48c0,0.4,0.07,0.75,0.22,1.04s0.37,0.5,0.65,0.65
					s0.62,0.22,1.02,0.22S114.9,311.68,115.18,311.53z"/>
				<path class="st1" d="M119.64,299h1.63v14.2h-1.63V299z M120.67,306.16h2.86c0.27,0,0.51-0.06,0.7-0.19s0.34-0.3,0.44-0.53
					s0.15-0.51,0.15-0.83v-2.47c0-0.34-0.05-0.63-0.15-0.87s-0.25-0.42-0.44-0.55s-0.43-0.19-0.7-0.19h-2.86V299h2.8
					c0.64,0,1.18,0.12,1.63,0.37s0.79,0.6,1.03,1.06s0.35,1.03,0.35,1.68v2.53c0,0.64-0.12,1.18-0.36,1.64s-0.58,0.8-1.03,1.04
					s-0.99,0.36-1.62,0.36h-2.8V306.16z"/>
				<path class="st1" d="M129.71,312.92c-0.49-0.29-0.87-0.7-1.13-1.25s-0.39-1.2-0.39-1.96v-7.22c0-0.77,0.13-1.42,0.39-1.97
					s0.64-0.96,1.13-1.25s1.09-0.43,1.78-0.43s1.29,0.14,1.79,0.43s0.87,0.7,1.13,1.25s0.39,1.2,0.39,1.96v0.57h-1.64v-0.57
					c0-0.43-0.06-0.8-0.2-1.11s-0.32-0.54-0.57-0.7s-0.55-0.24-0.9-0.24s-0.65,0.08-0.9,0.24s-0.44,0.39-0.57,0.7
					s-0.2,0.68-0.2,1.12v7.22c0,0.43,0.06,0.8,0.2,1.11s0.32,0.54,0.57,0.7s0.55,0.24,0.9,0.24c0.36,0,0.66-0.08,0.9-0.24
					s0.43-0.39,0.56-0.7s0.2-0.68,0.2-1.11v-0.57h1.64v0.57c0,0.76-0.13,1.41-0.39,1.96s-0.63,0.96-1.13,1.25s-1.09,0.43-1.79,0.43
					C130.8,313.35,130.2,313.2,129.71,312.92z"/>
				<path class="st1" d="M138.27,313.2h-1.64V299h1.64V313.2z"/>
				<path class="st1" d="M141.94,312.93c-0.53-0.28-0.93-0.69-1.21-1.22s-0.42-1.18-0.42-1.93v-7.34c0-0.75,0.14-1.4,0.42-1.94
					s0.68-0.94,1.21-1.22s1.16-0.42,1.9-0.42s1.38,0.14,1.9,0.42s0.93,0.68,1.21,1.22s0.42,1.18,0.42,1.94v7.34
					c0,0.75-0.14,1.4-0.42,1.93s-0.68,0.94-1.21,1.22s-1.16,0.42-1.9,0.42S142.46,313.21,141.94,312.93z M144.86,311.53
					c0.28-0.15,0.5-0.37,0.65-0.65s0.22-0.63,0.22-1.04v-7.48c0-0.4-0.07-0.75-0.22-1.04s-0.37-0.5-0.65-0.65s-0.62-0.22-1.02-0.22
					s-0.74,0.08-1.02,0.22s-0.5,0.37-0.65,0.65s-0.22,0.63-0.22,1.04v7.48c0,0.4,0.07,0.75,0.22,1.04s0.37,0.5,0.65,0.65
					s0.62,0.22,1.02,0.22S144.58,311.68,144.86,311.53z"/>
				<path class="st1" d="M149.32,299h1.47l4.19,11.27l-0.27,0.25V299h1.58v14.19h-1.49l-4.17-11.1l0.27-0.25v11.36h-1.58V299z"/>
				<path class="st1" d="M160.84,299h1.7l3.28,14.2h-1.78l-2.35-11.96l-2.35,11.96h-1.78L160.84,299z M159.52,308.4h4.52v1.53h-4.52
					V308.4z"/>
				<path class="st1" d="M167.09,299h1.63v14.2h-1.63V299z M168.09,311.67h4.9v1.53h-4.9V311.67z"/>
				<path class="st1" d="M86.79,348.36l-4.07,11.31h4.17v1.53h-5.9v-1.36l4.12-11.31h-3.95V347h5.62V348.36z"/>
				<path class="st1" d="M91.05,347h1.7l3.28,14.2h-1.78l-2.35-11.96l-2.35,11.96h-1.78L91.05,347z M89.73,356.4h4.52v1.53h-4.52
					V356.4z"/>
				<path class="st1" d="M97.3,347h1.63v14.2H97.3V347z M98.33,354.16h2.86c0.27,0,0.51-0.06,0.7-0.19s0.34-0.3,0.44-0.53
					s0.15-0.51,0.15-0.83v-2.47c0-0.34-0.05-0.63-0.15-0.87s-0.25-0.42-0.44-0.55s-0.43-0.19-0.7-0.19h-2.86V347h2.8
					c0.64,0,1.18,0.12,1.63,0.37s0.79,0.6,1.03,1.06s0.35,1.03,0.35,1.68v2.53c0,0.64-0.12,1.18-0.36,1.64s-0.58,0.8-1.03,1.04
					s-0.99,0.36-1.62,0.36h-2.8V354.16z"/>
				<path class="st1" d="M107.76,347h1.7l3.28,14.2h-1.78l-2.35-11.96l-2.35,11.96h-1.78L107.76,347z M106.44,356.4h4.52v1.53h-4.52
					V356.4z"/>
				<path class="st1" d="M112.64,347h6.89v1.53h-6.89V347z M115.27,348.16h1.64v13.04h-1.64V348.16z"/>
				<path class="st1" d="M122.14,360.93c-0.53-0.28-0.93-0.69-1.21-1.22s-0.42-1.18-0.42-1.93v-7.34c0-0.75,0.14-1.4,0.42-1.94
					s0.68-0.94,1.21-1.22s1.16-0.42,1.9-0.42s1.38,0.14,1.9,0.42s0.93,0.68,1.21,1.22s0.42,1.18,0.42,1.94v7.34
					c0,0.75-0.14,1.4-0.42,1.93s-0.68,0.94-1.21,1.22s-1.16,0.42-1.9,0.42S122.66,361.21,122.14,360.93z M125.06,359.53
					c0.28-0.15,0.5-0.37,0.65-0.65s0.22-0.63,0.22-1.04v-7.48c0-0.4-0.07-0.75-0.22-1.04s-0.37-0.5-0.65-0.65s-0.62-0.22-1.02-0.22
					s-0.74,0.08-1.02,0.22s-0.5,0.37-0.65,0.65s-0.22,0.63-0.22,1.04v7.48c0,0.4,0.07,0.75,0.22,1.04s0.37,0.5,0.65,0.65
					s0.62,0.22,1.02,0.22S124.78,359.68,125.06,359.53z"/>
				<path class="st1" d="M130.97,360.97c-0.51-0.25-0.9-0.62-1.16-1.12s-0.39-1.11-0.39-1.84v-0.7l1.62-0.01v0.67
					c0,0.6,0.15,1.05,0.46,1.36s0.77,0.46,1.37,0.46c0.59,0,1.04-0.15,1.34-0.45s0.45-0.76,0.45-1.36v-1.04
					c0-0.4-0.09-0.75-0.28-1.03s-0.42-0.51-0.71-0.7s-0.66-0.39-1.13-0.62c-0.02-0.01-0.04-0.01-0.05-0.02s-0.03-0.01-0.04-0.02
					l-0.13-0.06c-0.62-0.3-1.13-0.58-1.52-0.84s-0.71-0.62-0.98-1.07s-0.4-1.02-0.4-1.69v-0.76c0-0.72,0.13-1.32,0.39-1.81
					s0.64-0.86,1.15-1.1s1.14-0.37,1.9-0.37c0.73,0,1.34,0.12,1.84,0.38s0.87,0.62,1.12,1.12s0.38,1.1,0.38,1.83v0.74h-1.61v-0.7
					c-0.01-0.59-0.15-1.04-0.44-1.35s-0.72-0.46-1.29-0.46c-0.6,0-1.05,0.14-1.36,0.43s-0.46,0.71-0.46,1.28v0.79
					c0,0.4,0.1,0.74,0.29,1.02s0.43,0.5,0.71,0.67s0.68,0.38,1.18,0.61c0.05,0.03,0.1,0.05,0.14,0.07s0.09,0.04,0.13,0.06
					c0.03,0.01,0.06,0.03,0.09,0.04s0.06,0.03,0.08,0.04c0.55,0.26,1,0.52,1.36,0.78s0.66,0.61,0.89,1.05s0.36,1,0.36,1.67v1.1
					c0,0.73-0.13,1.34-0.39,1.84s-0.64,0.87-1.14,1.12s-1.13,0.38-1.88,0.38C132.12,361.35,131.48,361.22,130.97,360.97z"/>
				<path class="st1" d="M141.07,347h1.63v14.2h-1.63V347z M142.04,359.67h3.03c0.35,0,0.61-0.1,0.79-0.3s0.27-0.49,0.27-0.86v-8.81
					c0-0.37-0.09-0.66-0.27-0.86s-0.44-0.3-0.79-0.3h-3.03V347h2.97c0.59,0,1.08,0.11,1.49,0.32s0.72,0.52,0.93,0.94
					s0.32,0.91,0.32,1.5v8.69c0,0.59-0.11,1.08-0.32,1.49s-0.53,0.72-0.94,0.94s-0.91,0.32-1.49,0.32h-2.96V359.67z"/>
				<path class="st1" d="M149.7,347h1.63v14.2h-1.63V347z M150.67,347h5.13v1.53h-5.13V347z M150.67,353.38h4.64v1.54h-4.64V353.38z
					 M150.67,359.67h5.13v1.53h-5.13V359.67z"/>
				<path class="st1" d="M159.31,347h1.71l2.11,11.75l2.11-11.75h1.71l-2.86,14.2h-1.91L159.31,347z"/>
				<path class="st1" d="M168.02,347h1.63v14.2h-1.63V347z M168.99,347h5.13v1.53h-5.13V347z M168.99,353.38h4.64v1.54h-4.64V353.38
					z M168.99,359.67h5.13v1.53h-5.13V359.67z"/>
				<path class="st1" d="M177.03,360.97c-0.51-0.25-0.9-0.62-1.16-1.12s-0.39-1.11-0.39-1.84v-0.7l1.62-0.01v0.67
					c0,0.6,0.15,1.05,0.46,1.36s0.77,0.46,1.37,0.46c0.59,0,1.04-0.15,1.34-0.45s0.45-0.76,0.45-1.36v-1.04
					c0-0.4-0.09-0.75-0.28-1.03s-0.42-0.51-0.71-0.7s-0.66-0.39-1.13-0.62c-0.02-0.01-0.04-0.01-0.05-0.02s-0.03-0.01-0.04-0.02
					l-0.13-0.06c-0.62-0.3-1.13-0.58-1.52-0.84s-0.71-0.62-0.98-1.07s-0.4-1.02-0.4-1.69v-0.76c0-0.72,0.13-1.32,0.39-1.81
					s0.64-0.86,1.15-1.1s1.14-0.37,1.9-0.37c0.73,0,1.34,0.12,1.84,0.38s0.87,0.62,1.12,1.12s0.38,1.1,0.38,1.83v0.74h-1.61v-0.7
					c-0.01-0.59-0.15-1.04-0.44-1.35s-0.72-0.46-1.29-0.46c-0.6,0-1.05,0.14-1.36,0.43s-0.46,0.71-0.46,1.28v0.79
					c0,0.4,0.1,0.74,0.29,1.02s0.43,0.5,0.71,0.67s0.68,0.38,1.18,0.61c0.05,0.03,0.1,0.05,0.14,0.07s0.09,0.04,0.13,0.06
					c0.03,0.01,0.06,0.03,0.09,0.04s0.06,0.03,0.08,0.04c0.55,0.26,1,0.52,1.36,0.78s0.66,0.61,0.89,1.05s0.36,1,0.36,1.67v1.1
					c0,0.73-0.13,1.34-0.39,1.84s-0.64,0.87-1.14,1.12s-1.13,0.38-1.88,0.38C178.18,361.35,177.54,361.22,177.03,360.97z"/>
				<path class="st1" d="M183.23,347h6.89v1.53h-6.89V347z M185.86,348.16h1.64v13.04h-1.64V348.16z"/>
				<path class="st1" d="M192.83,361.2h-1.64V347h1.64V361.2z"/>
				<path class="st1" d="M194.87,346.99h1.63v14.21h-1.63V346.99z M195.74,353.66h2.63c0.38,0,0.7-0.07,0.97-0.21
					s0.47-0.34,0.62-0.62s0.21-0.59,0.21-0.96v-1.46c0-0.39-0.07-0.73-0.21-1.02s-0.35-0.5-0.62-0.65s-0.59-0.22-0.97-0.22h-2.63
					v-1.53h2.49c0.75,0,1.39,0.12,1.92,0.38s0.94,0.62,1.22,1.1s0.42,1.07,0.42,1.74v1.66c0,0.7-0.14,1.29-0.42,1.79
					s-0.68,0.88-1.22,1.14s-1.18,0.39-1.93,0.39h-2.49V353.66z M198.43,354.75l1.5-0.45l2.27,6.89h-1.84L198.43,354.75z"/>
			</g>
		</g>
		<g>
			<path class="st0" d="M141.91,132.87l-3.84-11.67c0,0-2.8-8.2-3.28-13.7c-0.48-5.5-0.73-10.62-0.33-13.39c0,0,7.42-2.57,14.9,0
				c0.4,2.77,0.15,7.89-0.33,13.39c-0.48,5.5-3.28,13.7-3.28,13.7L141.91,132.87"/>
			<path class="st2" d="M123.55,144.08c3.42,0.69,6.85,1.14,10.28,1.34c0,0.01,0,0.02,0,0.02c-0.03,1.34-0.64,2.39-1.38,2.33
				c-3.02-0.23-6.03-0.65-9.04-1.26"/>
			<path class="st2" d="M160.27,144.08c-3.42,0.69-6.85,1.14-10.28,1.34c0,0.01,0,0.02,0,0.02c0.03,1.34,0.64,2.39,1.38,2.33
				c3.02-0.23,6.03-0.65,9.04-1.26"/>
			<path class="st3" d="M132.26,105.01l-5.25,2.7c6.76,19.4,17.37,33.26,17.37,33.26l-7.41-23.22c-2.26-7.08-3.13-16.18-2.58-23.58
				v0l1.66-4.62l-6.23,3.16l-3.36,11.78l4.58,1.08"/>
			<path class="st3" d="M122.36,123.01c0,0,1.79,4.24,1.79,14.67s-4.81,29.71-4.81,29.71s4.61,2.92,13.74,4.15
				c5.97,0.81,11.29-3.84,11.29-9.87v-20.7"/>
			<path class="st3" d="M129.23,94.75c0,0-10.75,2.11-11.64,5.26c0,0-8.24-2.97-8.56,69.13c0,0,4.98,1.61,8.52,0
				c0,0,2.69-26.67,4.81-46.13"/>
			<path class="st3" d="M117.59,100.01c0,0,4.8,5.34,4.77,23"/>
			<path class="st3" d="M109.28,169.21l-0.12,3.42c0,0,4.11,1.69,7.97,0.11l0.25-3.53"/>
			<path class="st3" d="M125.13,169.81c0,0,2.11-4.03,3.25-13.4"/>
			<path class="st3" d="M123.85,144.13c3.42,0.69,6.55,1.08,9.99,1.28c0,0.01,0,0.02,0,0.02c-0.03,1.34-0.64,2.39-1.38,2.33
				c-3.02-0.23-6.03-0.65-9.04-1.26"/>
			<path class="st3" d="M141.91,133.24l4.94-15.5c2.26-7.08,3.13-16.18,2.58-23.58v0l-1.66-4.62L154,92.7l3.36,11.78l-4.58,1.08"/>
			<path class="st3" d="M151.57,105.01l5.25,2.7c-4.36,12.5-10.31,22.71-14,28.38"/>
			<path class="st3" d="M161.46,123.01c0,0-1.79,4.24-1.79,14.67s4.81,29.71,4.81,29.71s-4.61,2.92-13.74,4.15
				c-3.47,0.47-6.71-0.9-8.83-3.31"/>
			<path class="st3" d="M154.6,94.75c0,0,10.75,2.11,11.64,5.26c0,0,8.24-2.97,8.56,69.13c0,0-4.98,1.61-8.52,0
				c0,0-2.69-26.67-4.81-46.13"/>
			<path class="st3" d="M166.23,100.01c0,0-4.8,5.34-4.77,23"/>
			<path class="st3" d="M174.54,169.21l0.12,3.42c0,0-4.11,1.69-7.97,0.11l-0.25-3.53"/>
			<path class="st3" d="M158.69,169.81c0,0-2.11-4.03-3.25-13.4"/>
			<path class="st3" d="M159.94,144.14c-3.42,0.69-6.52,1.07-9.96,1.28c0,0.01,0,0.02,0,0.02c0.03,1.34,0.64,2.39,1.38,2.33
				c3.02-0.23,6.03-0.65,9.04-1.26"/>
			<path class="st3" d="M133.09,171.54c0,0,8.29,1.41,17.65,0"/>
			<path class="st3" d="M136.05,89.54c0,0,5.42-2.62,11.72,0"/>
			<path class="st3" d="M134.46,94.11c0,0,6.99-2.99,14.9,0"/>
		</g>
	</g>
	<g>
		<g>
			<g>
				<path class="st1" d="M376.31,203h1.71l2.11,11.75l2.11-11.75h1.71l-2.86,14.2h-1.91L376.31,203z"/>
				<path class="st1" d="M385.02,203h1.63v14.2h-1.63V203z M385.99,203h5.13v1.53h-5.13V203z M385.99,209.38h4.64v1.54h-4.64V209.38
					z M385.99,215.67h5.13v1.53h-5.13V215.67z"/>
				<path class="st1" d="M394.03,216.97c-0.51-0.25-0.9-0.62-1.16-1.12c-0.26-0.5-0.39-1.11-0.39-1.84v-0.7l1.62-0.01v0.67
					c0,0.6,0.15,1.05,0.46,1.36c0.31,0.31,0.77,0.46,1.37,0.46c0.59,0,1.04-0.15,1.34-0.45c0.3-0.3,0.45-0.76,0.45-1.36v-1.04
					c0-0.4-0.09-0.75-0.28-1.03s-0.42-0.51-0.71-0.7c-0.29-0.19-0.66-0.39-1.13-0.62c-0.02-0.01-0.04-0.01-0.05-0.02
					c-0.01-0.01-0.03-0.01-0.04-0.02l-0.13-0.06c-0.62-0.3-1.13-0.58-1.52-0.84c-0.39-0.26-0.71-0.62-0.98-1.07
					c-0.27-0.45-0.4-1.02-0.4-1.69v-0.76c0-0.72,0.13-1.32,0.39-1.81c0.26-0.49,0.64-0.86,1.15-1.1c0.51-0.25,1.14-0.37,1.9-0.37
					c0.73,0,1.34,0.12,1.84,0.38c0.49,0.25,0.87,0.62,1.12,1.12s0.38,1.1,0.38,1.83v0.74h-1.61v-0.7c-0.01-0.59-0.15-1.04-0.44-1.35
					c-0.29-0.31-0.72-0.46-1.29-0.46c-0.6,0-1.05,0.14-1.36,0.43c-0.31,0.29-0.46,0.71-0.46,1.28v0.79c0,0.4,0.1,0.74,0.29,1.02
					c0.19,0.27,0.43,0.5,0.71,0.67s0.67,0.38,1.18,0.61c0.05,0.03,0.1,0.05,0.14,0.07c0.04,0.02,0.09,0.04,0.13,0.06
					c0.03,0.01,0.06,0.03,0.09,0.04s0.06,0.03,0.08,0.04c0.55,0.26,1,0.52,1.36,0.78c0.36,0.26,0.66,0.61,0.89,1.05
					c0.24,0.44,0.36,1,0.36,1.67v1.1c0,0.73-0.13,1.34-0.39,1.84c-0.26,0.5-0.64,0.87-1.14,1.12c-0.5,0.25-1.13,0.38-1.88,0.38
					C395.18,217.35,394.54,217.22,394.03,216.97z"/>
				<path class="st1" d="M400.23,203h6.89v1.53h-6.89V203z M402.86,204.16h1.64v13.04h-1.64V204.16z"/>
				<path class="st1" d="M409.83,217.2h-1.64V203h1.64V217.2z"/>
				<path class="st1" d="M411.87,203h1.63v14.2h-1.63V203z M412.84,215.67h3.03c0.34,0,0.61-0.1,0.79-0.3
					c0.18-0.2,0.27-0.49,0.27-0.86v-8.81c0-0.37-0.09-0.66-0.27-0.86c-0.18-0.2-0.44-0.3-0.79-0.3h-3.03V203h2.97
					c0.59,0,1.08,0.11,1.49,0.32s0.72,0.52,0.93,0.94c0.21,0.41,0.32,0.91,0.32,1.5v8.69c0,0.59-0.11,1.08-0.32,1.49
					s-0.53,0.72-0.94,0.94s-0.91,0.32-1.49,0.32h-2.96V215.67z"/>
				<path class="st1" d="M422.12,216.93c-0.53-0.28-0.93-0.69-1.21-1.22c-0.28-0.53-0.42-1.18-0.42-1.93v-7.34
					c0-0.75,0.14-1.4,0.42-1.94c0.28-0.54,0.68-0.94,1.21-1.22s1.16-0.42,1.9-0.42s1.38,0.14,1.9,0.42s0.93,0.68,1.21,1.22
					c0.28,0.54,0.42,1.18,0.42,1.94v7.34c0,0.75-0.14,1.4-0.42,1.93c-0.28,0.53-0.68,0.94-1.21,1.22s-1.16,0.42-1.9,0.42
					S422.65,217.21,422.12,216.93z M425.05,215.53c0.28-0.15,0.5-0.37,0.65-0.65c0.15-0.29,0.22-0.63,0.22-1.04v-7.48
					c0-0.4-0.08-0.75-0.22-1.04c-0.15-0.29-0.37-0.5-0.65-0.65s-0.62-0.22-1.02-0.22c-0.4,0-0.74,0.08-1.02,0.22
					s-0.5,0.37-0.65,0.65c-0.15,0.29-0.22,0.63-0.22,1.04v7.48c0,0.4,0.07,0.75,0.22,1.04c0.15,0.29,0.37,0.5,0.65,0.65
					s0.62,0.22,1.02,0.22C424.42,215.75,424.77,215.68,425.05,215.53z"/>
				<path class="st1" d="M432.44,203h1.63v14.2h-1.63V203z M433.43,215.67h4.9v1.53h-4.9V215.67z"/>
				<path class="st1" d="M442.4,203h1.7l3.28,14.2h-1.78l-2.35-11.96l-2.35,11.96h-1.78L442.4,203z M441.08,212.4h4.52v1.53h-4.52
					V212.4z"/>
				<path class="st1" d="M448.65,202.99h1.63v14.21h-1.63V202.99z M449.52,209.66h2.63c0.38,0,0.7-0.07,0.97-0.21
					c0.27-0.14,0.47-0.34,0.62-0.62c0.14-0.27,0.21-0.59,0.21-0.96v-1.46c0-0.39-0.07-0.73-0.21-1.02c-0.14-0.29-0.35-0.5-0.62-0.65
					c-0.27-0.15-0.59-0.22-0.97-0.22h-2.63v-1.53h2.49c0.75,0,1.39,0.12,1.92,0.38c0.53,0.25,0.94,0.62,1.22,1.1
					c0.28,0.49,0.42,1.07,0.42,1.74v1.66c0,0.7-0.14,1.29-0.42,1.79c-0.28,0.5-0.68,0.88-1.22,1.14s-1.18,0.39-1.93,0.39h-2.49
					V209.66z M452.2,210.75l1.5-0.45l2.27,6.89h-1.84L452.2,210.75z"/>
				<path class="st1" d="M464.56,209.55v4.14c0,0.77-0.13,1.43-0.4,1.97c-0.27,0.55-0.66,0.96-1.17,1.25
					c-0.51,0.29-1.12,0.43-1.84,0.43c-0.73,0-1.35-0.13-1.88-0.41c-0.52-0.27-0.92-0.66-1.19-1.18c-0.27-0.51-0.41-1.13-0.41-1.86
					v-7.41c0-0.77,0.13-1.42,0.4-1.97c0.27-0.54,0.66-0.96,1.17-1.25c0.51-0.29,1.12-0.43,1.84-0.43c0.7,0,1.3,0.14,1.81,0.42
					c0.5,0.28,0.88,0.68,1.15,1.21s0.4,1.17,0.4,1.91v0.69h-1.75v-0.69c0-0.42-0.06-0.77-0.19-1.06c-0.12-0.29-0.3-0.51-0.54-0.66
					c-0.24-0.15-0.53-0.23-0.87-0.23c-0.37,0-0.69,0.08-0.96,0.24c-0.27,0.16-0.47,0.4-0.61,0.7c-0.14,0.31-0.21,0.68-0.21,1.11
					v7.41c0,0.39,0.07,0.73,0.21,1.01c0.14,0.28,0.35,0.49,0.62,0.63s0.61,0.21,1,0.21c0.38,0,0.7-0.08,0.96-0.24
					s0.46-0.39,0.61-0.69c0.14-0.3,0.21-0.67,0.21-1.1v-2.66h-1.83v-1.52H464.56z"/>
				<path class="st1" d="M468.13,216.93c-0.53-0.28-0.93-0.69-1.21-1.22c-0.28-0.53-0.42-1.18-0.42-1.93v-7.34
					c0-0.75,0.14-1.4,0.42-1.94c0.28-0.54,0.68-0.94,1.21-1.22s1.16-0.42,1.9-0.42s1.38,0.14,1.9,0.42s0.93,0.68,1.21,1.22
					c0.28,0.54,0.42,1.18,0.42,1.94v7.34c0,0.75-0.14,1.4-0.42,1.93c-0.28,0.53-0.68,0.94-1.21,1.22s-1.16,0.42-1.9,0.42
					S468.66,217.21,468.13,216.93z M471.05,215.53c0.28-0.15,0.5-0.37,0.65-0.65c0.15-0.29,0.22-0.63,0.22-1.04v-7.48
					c0-0.4-0.08-0.75-0.22-1.04c-0.15-0.29-0.37-0.5-0.65-0.65s-0.62-0.22-1.02-0.22c-0.4,0-0.74,0.08-1.02,0.22
					s-0.5,0.37-0.65,0.65c-0.15,0.29-0.22,0.63-0.22,1.04v7.48c0,0.4,0.07,0.75,0.22,1.04c0.15,0.29,0.37,0.5,0.65,0.65
					s0.62,0.22,1.02,0.22C470.43,215.75,470.77,215.68,471.05,215.53z"/>
				<path class="st1" d="M353.3,234.34c-0.32-1.17-0.47-2.47-0.47-3.89s0.16-2.72,0.47-3.89c0.31-1.17,0.79-2.22,1.42-3.15
					l0.87,0.54c-0.55,0.89-0.96,1.88-1.22,2.96s-0.4,2.26-0.4,3.54c0,1.27,0.13,2.45,0.4,3.53c0.27,1.08,0.68,2.07,1.22,2.97
					l-0.87,0.54C354.09,236.56,353.61,235.51,353.3,234.34z"/>
				<path class="st1" d="M356.2,224.55h1.11l3.14,8.45l-0.21,0.19v-8.64h1.19v10.64h-1.12l-3.13-8.33l0.21-0.19v8.52h-1.19V224.55z"
					/>
				<path class="st1" d="M364.11,235c-0.4-0.21-0.7-0.51-0.9-0.92c-0.21-0.4-0.31-0.88-0.31-1.45v-5.51c0-0.57,0.1-1.05,0.31-1.45
					c0.21-0.4,0.51-0.71,0.9-0.92c0.4-0.21,0.87-0.31,1.43-0.31s1.03,0.1,1.43,0.31c0.4,0.21,0.7,0.51,0.9,0.92
					c0.21,0.4,0.31,0.89,0.31,1.45v5.51c0,0.57-0.1,1.05-0.31,1.45c-0.21,0.4-0.51,0.71-0.9,0.92s-0.87,0.31-1.43,0.31
					S364.5,235.21,364.11,235z M366.3,233.95c0.21-0.11,0.38-0.28,0.49-0.49s0.17-0.47,0.17-0.78v-5.61c0-0.3-0.06-0.56-0.17-0.78
					s-0.27-0.38-0.49-0.49c-0.21-0.11-0.47-0.17-0.77-0.17s-0.55,0.06-0.76,0.17c-0.21,0.11-0.38,0.28-0.49,0.49
					s-0.17,0.47-0.17,0.78v5.61c0,0.3,0.06,0.56,0.17,0.78s0.27,0.38,0.49,0.49c0.21,0.11,0.47,0.17,0.76,0.17
					S366.09,234.06,366.3,233.95z"/>
				<path class="st1" d="M371.84,224.55h1.22v10.65h-1.22V224.55z M372.72,234.05h1.92c0.31,0,0.55-0.08,0.73-0.24
					c0.17-0.16,0.26-0.38,0.26-0.66v-1.64c0-0.27-0.05-0.5-0.14-0.7s-0.22-0.34-0.38-0.45c-0.16-0.1-0.34-0.15-0.55-0.15h-1.85
					v-1.14h1.85c0.29,0,0.52-0.1,0.68-0.3s0.24-0.49,0.24-0.86v-1.31c0-0.28-0.08-0.5-0.24-0.66c-0.16-0.16-0.38-0.23-0.67-0.23
					h-1.86v-1.15h1.82c0.46,0,0.85,0.08,1.18,0.23c0.32,0.15,0.57,0.38,0.74,0.67c0.17,0.3,0.25,0.65,0.25,1.07v1.27
					c0,0.34-0.05,0.63-0.14,0.89s-0.23,0.47-0.4,0.64c-0.17,0.17-0.38,0.28-0.63,0.34c0.28,0.05,0.52,0.16,0.71,0.33
					s0.34,0.39,0.45,0.67s0.15,0.59,0.15,0.95v1.55c0,0.43-0.08,0.8-0.25,1.1c-0.16,0.3-0.4,0.53-0.72,0.69
					c-0.32,0.16-0.7,0.24-1.15,0.24h-2.02V234.05z"/>
				<path class="st1" d="M378.13,224.55h1.22v10.65h-1.22V224.55z M378.88,234.05h3.68v1.15h-3.68V234.05z"/>
				<path class="st1" d="M385.6,224.55h1.27l2.46,10.65H388l-1.76-8.97l-1.77,8.97h-1.33L385.6,224.55z M384.61,231.6H388v1.15
					h-3.39V231.6z"/>
				<path class="st1" d="M390.29,224.55h1.11l3.14,8.45l-0.21,0.19v-8.64h1.19v10.64h-1.12l-3.13-8.33l0.21-0.19v8.52h-1.19V224.55z
					"/>
				<path class="st1" d="M398.13,234.99c-0.37-0.21-0.65-0.53-0.85-0.93c-0.2-0.41-0.29-0.9-0.29-1.47v-5.41
					c0-0.58,0.1-1.07,0.29-1.48c0.2-0.41,0.48-0.72,0.85-0.93c0.37-0.21,0.81-0.32,1.34-0.32s0.97,0.11,1.34,0.32
					c0.37,0.22,0.65,0.53,0.85,0.93c0.19,0.41,0.29,0.9,0.29,1.47v0.43h-1.23v-0.43c0-0.32-0.05-0.6-0.15-0.83
					c-0.1-0.23-0.24-0.41-0.42-0.53c-0.19-0.12-0.41-0.18-0.67-0.18s-0.49,0.06-0.67,0.18c-0.19,0.12-0.33,0.3-0.42,0.53
					c-0.1,0.23-0.15,0.51-0.15,0.84v5.41c0,0.32,0.05,0.6,0.15,0.83c0.1,0.23,0.24,0.41,0.42,0.53c0.19,0.12,0.41,0.18,0.67,0.18
					c0.27,0,0.49-0.06,0.68-0.18c0.18-0.12,0.32-0.29,0.42-0.52s0.15-0.51,0.15-0.84v-0.42h1.23v0.42c0,0.57-0.1,1.06-0.29,1.47
					c-0.19,0.41-0.47,0.72-0.85,0.93c-0.37,0.21-0.82,0.32-1.34,0.32C398.94,235.31,398.5,235.2,398.13,234.99z"/>
				<path class="st1" d="M404.47,235c-0.4-0.21-0.7-0.51-0.9-0.92c-0.21-0.4-0.31-0.88-0.31-1.45v-5.51c0-0.57,0.1-1.05,0.31-1.45
					c0.21-0.4,0.51-0.71,0.9-0.92c0.4-0.21,0.87-0.31,1.43-0.31s1.03,0.1,1.43,0.31c0.4,0.21,0.7,0.51,0.9,0.92
					c0.21,0.4,0.31,0.89,0.31,1.45v5.51c0,0.57-0.1,1.05-0.31,1.45c-0.21,0.4-0.51,0.71-0.9,0.92s-0.87,0.31-1.43,0.31
					S404.86,235.21,404.47,235z M406.66,233.95c0.21-0.11,0.38-0.28,0.49-0.49s0.17-0.47,0.17-0.78v-5.61c0-0.3-0.06-0.56-0.17-0.78
					s-0.27-0.38-0.49-0.49c-0.21-0.11-0.47-0.17-0.76-0.17s-0.55,0.06-0.77,0.17c-0.21,0.11-0.38,0.28-0.49,0.49
					s-0.17,0.47-0.17,0.78v5.61c0,0.3,0.06,0.56,0.17,0.78s0.27,0.38,0.49,0.49c0.21,0.11,0.47,0.17,0.77,0.17
					S406.45,234.06,406.66,233.95z"/>
				<path class="st1" d="M409.41,233.98h1.23v1.22l-1.23,1.2V233.98z"/>
				<path class="st1" d="M415.37,235c-0.4-0.21-0.7-0.51-0.9-0.92c-0.21-0.4-0.31-0.88-0.31-1.45v-5.51c0-0.57,0.1-1.05,0.31-1.45
					c0.21-0.4,0.51-0.71,0.9-0.92c0.4-0.21,0.87-0.31,1.43-0.31s1.03,0.1,1.43,0.31c0.4,0.21,0.7,0.51,0.9,0.92
					c0.21,0.4,0.31,0.89,0.31,1.45v5.51c0,0.57-0.1,1.05-0.31,1.45c-0.21,0.4-0.51,0.71-0.9,0.92s-0.87,0.31-1.43,0.31
					S415.76,235.21,415.37,235z M417.56,233.95c0.21-0.11,0.38-0.28,0.49-0.49s0.17-0.47,0.17-0.78v-5.61c0-0.3-0.06-0.56-0.17-0.78
					s-0.27-0.38-0.49-0.49c-0.21-0.11-0.47-0.17-0.76-0.17s-0.55,0.06-0.77,0.17c-0.21,0.11-0.38,0.28-0.49,0.49
					s-0.17,0.47-0.17,0.78v5.61c0,0.3,0.06,0.56,0.17,0.78s0.27,0.38,0.49,0.49c0.21,0.11,0.47,0.17,0.77,0.17
					S417.35,234.06,417.56,233.95z"/>
				<path class="st1" d="M420.9,224.55h1.22v10.65h-1.22V224.55z M421.65,234.05h3.68v1.15h-3.68V234.05z"/>
				<path class="st1" d="M427.72,235.2h-1.23v-10.65h1.23V235.2z"/>
				<path class="st1" d="M428.59,224.55h1.28l1.58,8.81l1.58-8.81h1.28l-2.15,10.65h-1.44L428.59,224.55z"/>
				<path class="st1" d="M436.2,235c-0.4-0.21-0.7-0.51-0.9-0.92c-0.21-0.4-0.31-0.88-0.31-1.45v-5.51c0-0.57,0.1-1.05,0.31-1.45
					c0.21-0.4,0.51-0.71,0.9-0.92c0.4-0.21,0.87-0.31,1.43-0.31s1.03,0.1,1.43,0.31c0.4,0.21,0.7,0.51,0.9,0.92
					c0.21,0.4,0.31,0.89,0.31,1.45v5.51c0,0.57-0.1,1.05-0.31,1.45c-0.21,0.4-0.51,0.71-0.9,0.92s-0.87,0.31-1.43,0.31
					S436.59,235.21,436.2,235z M438.39,233.95c0.21-0.11,0.38-0.28,0.49-0.49s0.17-0.47,0.17-0.78v-5.61c0-0.3-0.06-0.56-0.17-0.78
					s-0.27-0.38-0.49-0.49c-0.21-0.11-0.47-0.17-0.76-0.17s-0.55,0.06-0.77,0.17c-0.21,0.11-0.38,0.28-0.49,0.49
					s-0.17,0.47-0.17,0.78v5.61c0,0.3,0.06,0.56,0.17,0.78s0.27,0.38,0.49,0.49c0.21,0.11,0.47,0.17,0.77,0.17
					S438.18,234.06,438.39,233.95z"/>
				<path class="st1" d="M441.14,233.98h1.23v1.22l-1.23,1.2V233.98z"/>
				<path class="st1" d="M445.88,224.55h1.11l3.14,8.45l-0.21,0.19v-8.64h1.19v10.64h-1.12l-3.13-8.33l0.21-0.19v8.52h-1.19V224.55z
					"/>
				<path class="st1" d="M453.87,235.2h-1.23v-10.65h1.23V235.2z"/>
				<path class="st1" d="M458.74,234.99c-0.37-0.21-0.65-0.53-0.85-0.93c-0.2-0.41-0.29-0.9-0.29-1.47v-5.41
					c0-0.58,0.1-1.07,0.29-1.48c0.2-0.41,0.48-0.72,0.85-0.93c0.37-0.21,0.81-0.32,1.34-0.32s0.97,0.11,1.34,0.32
					c0.37,0.22,0.65,0.53,0.85,0.93c0.19,0.41,0.29,0.9,0.29,1.47v0.43h-1.23v-0.43c0-0.32-0.05-0.6-0.15-0.83
					c-0.1-0.23-0.24-0.41-0.42-0.53c-0.19-0.12-0.41-0.18-0.67-0.18s-0.49,0.06-0.67,0.18c-0.19,0.12-0.33,0.3-0.42,0.53
					c-0.1,0.23-0.15,0.51-0.15,0.84v5.41c0,0.32,0.05,0.6,0.15,0.83c0.1,0.23,0.24,0.41,0.42,0.53c0.19,0.12,0.41,0.18,0.67,0.18
					c0.27,0,0.49-0.06,0.68-0.18c0.18-0.12,0.32-0.29,0.42-0.52s0.15-0.51,0.15-0.84v-0.42h1.23v0.42c0,0.57-0.1,1.06-0.29,1.47
					c-0.19,0.41-0.47,0.72-0.85,0.93c-0.37,0.21-0.82,0.32-1.34,0.32C459.56,235.31,459.11,235.2,458.74,234.99z"/>
				<path class="st1" d="M463.87,224.55h1.22v10.65h-1.22V224.55z M464.62,234.05h3.68v1.15h-3.68V234.05z"/>
				<path class="st1" d="M471.34,224.55h1.27l2.46,10.65h-1.33l-1.76-8.97l-1.77,8.97h-1.33L471.34,224.55z M470.35,231.6h3.39v1.15
					h-3.39V231.6z"/>
				<path class="st1" d="M476.03,224.54h1.22v10.66h-1.22V224.54z M476.68,229.55h1.97c0.28,0,0.53-0.05,0.73-0.16
					c0.2-0.11,0.35-0.26,0.46-0.46c0.11-0.2,0.16-0.44,0.16-0.72v-1.1c0-0.29-0.05-0.55-0.16-0.76c-0.11-0.21-0.26-0.38-0.46-0.49
					c-0.2-0.11-0.45-0.17-0.73-0.17h-1.97v-1.15h1.87c0.56,0,1.04,0.09,1.44,0.28c0.4,0.19,0.71,0.46,0.92,0.83
					c0.21,0.36,0.32,0.8,0.32,1.31v1.25c0,0.52-0.1,0.97-0.31,1.34c-0.21,0.37-0.51,0.66-0.92,0.85c-0.4,0.2-0.88,0.29-1.45,0.29
					h-1.87V229.55z M478.69,230.37l1.13-0.34l1.7,5.17h-1.38L478.69,230.37z"/>
				<path class="st1" d="M484.02,235c-0.4-0.21-0.7-0.51-0.9-0.92c-0.21-0.4-0.31-0.88-0.31-1.45v-5.51c0-0.57,0.1-1.05,0.31-1.45
					c0.21-0.4,0.51-0.71,0.9-0.92c0.4-0.21,0.87-0.31,1.43-0.31s1.03,0.1,1.43,0.31c0.4,0.21,0.7,0.51,0.9,0.92
					c0.21,0.4,0.31,0.89,0.31,1.45v5.51c0,0.57-0.1,1.05-0.31,1.45c-0.21,0.4-0.51,0.71-0.9,0.92s-0.87,0.31-1.43,0.31
					S484.41,235.21,484.02,235z M486.21,233.95c0.21-0.11,0.38-0.28,0.49-0.49s0.17-0.47,0.17-0.78v-5.61c0-0.3-0.06-0.56-0.17-0.78
					s-0.27-0.38-0.49-0.49c-0.21-0.11-0.47-0.17-0.77-0.17s-0.55,0.06-0.76,0.17c-0.21,0.11-0.38,0.28-0.49,0.49
					s-0.17,0.47-0.17,0.78v5.61c0,0.3,0.06,0.56,0.17,0.78s0.27,0.38,0.49,0.49c0.21,0.11,0.47,0.17,0.76,0.17
					S486,234.06,486.21,233.95z"/>
				<path class="st1" d="M490.64,235.03c-0.38-0.19-0.67-0.47-0.87-0.84s-0.29-0.83-0.29-1.38v-0.53l1.22-0.01v0.5
					c0,0.45,0.12,0.79,0.35,1.02c0.23,0.23,0.58,0.34,1.03,0.34c0.44,0,0.78-0.11,1-0.34c0.22-0.23,0.34-0.57,0.34-1.02v-0.78
					c0-0.3-0.07-0.56-0.21-0.77c-0.14-0.21-0.32-0.38-0.53-0.53c-0.21-0.14-0.5-0.29-0.85-0.46c-0.01,0-0.03-0.01-0.04-0.01
					c-0.01,0-0.02-0.01-0.03-0.01l-0.1-0.04c-0.47-0.22-0.85-0.43-1.14-0.63c-0.29-0.2-0.54-0.46-0.74-0.8
					c-0.2-0.34-0.3-0.76-0.3-1.27v-0.57c0-0.54,0.1-0.99,0.29-1.35c0.19-0.37,0.48-0.64,0.86-0.83c0.38-0.19,0.86-0.28,1.42-0.28
					c0.55,0,1.01,0.09,1.38,0.28c0.37,0.19,0.65,0.47,0.84,0.84s0.29,0.83,0.29,1.37v0.56h-1.21v-0.53c0-0.44-0.12-0.78-0.33-1.01
					s-0.54-0.34-0.97-0.34c-0.45,0-0.79,0.11-1.02,0.32s-0.34,0.53-0.34,0.96v0.59c0,0.3,0.07,0.56,0.22,0.76
					c0.14,0.21,0.32,0.37,0.53,0.5c0.21,0.13,0.51,0.28,0.88,0.46c0.04,0.02,0.07,0.04,0.11,0.05c0.03,0.02,0.06,0.03,0.1,0.05
					c0.02,0.01,0.05,0.02,0.07,0.03c0.02,0.01,0.04,0.02,0.06,0.03c0.41,0.2,0.75,0.39,1.02,0.58c0.27,0.19,0.49,0.46,0.67,0.79
					c0.18,0.33,0.27,0.75,0.27,1.25v0.83c0,0.55-0.1,1.01-0.29,1.38c-0.19,0.37-0.48,0.65-0.86,0.84c-0.38,0.19-0.85,0.28-1.41,0.28
					C491.5,235.31,491.03,235.22,490.64,235.03z"/>
				<path class="st1" d="M495.16,236.96c0.55-0.9,0.95-1.89,1.22-2.97c0.27-1.08,0.4-2.26,0.4-3.53c0-1.28-0.13-2.46-0.4-3.54
					c-0.27-1.08-0.68-2.07-1.22-2.96l0.87-0.54c0.63,0.93,1.11,1.98,1.42,3.15c0.32,1.17,0.47,2.47,0.47,3.89s-0.16,2.72-0.47,3.89
					c-0.31,1.17-0.79,2.22-1.42,3.15L495.16,236.96z"/>
				<path class="st1" d="M358.02,281h6.89v1.53h-6.89V281z M360.65,282.16h1.64v13.04h-1.64V282.16z"/>
				<path class="st1" d="M368.3,281h1.7l3.28,14.2h-1.78l-2.35-11.96l-2.35,11.96h-1.78L368.3,281z M366.98,290.4h4.52v1.53h-4.52
					V290.4z"/>
				<path class="st1" d="M375.78,294.92c-0.5-0.29-0.87-0.7-1.13-1.25c-0.26-0.54-0.39-1.2-0.39-1.96v-7.22
					c0-0.77,0.13-1.42,0.39-1.97c0.26-0.54,0.64-0.96,1.13-1.25c0.49-0.29,1.08-0.43,1.78-0.43c0.7,0,1.29,0.14,1.79,0.43
					c0.49,0.29,0.87,0.7,1.13,1.25c0.26,0.54,0.39,1.2,0.39,1.96v0.57h-1.64v-0.57c0-0.43-0.07-0.8-0.2-1.11
					c-0.13-0.31-0.32-0.54-0.57-0.7c-0.25-0.16-0.55-0.24-0.9-0.24s-0.65,0.08-0.9,0.24c-0.25,0.16-0.44,0.39-0.57,0.7
					c-0.13,0.31-0.2,0.68-0.2,1.12v7.22c0,0.43,0.06,0.8,0.2,1.11c0.13,0.31,0.32,0.54,0.57,0.7c0.25,0.16,0.55,0.24,0.9,0.24
					c0.36,0,0.66-0.08,0.9-0.24s0.43-0.39,0.56-0.7c0.13-0.31,0.2-0.68,0.2-1.11v-0.57h1.64v0.57c0,0.76-0.13,1.41-0.39,1.96
					c-0.26,0.54-0.63,0.96-1.13,1.25c-0.5,0.29-1.09,0.43-1.79,0.43C376.86,295.35,376.27,295.2,375.78,294.92z"/>
				<path class="st1" d="M384.23,294.93c-0.53-0.28-0.93-0.69-1.21-1.22c-0.28-0.53-0.42-1.18-0.42-1.93v-7.34
					c0-0.75,0.14-1.4,0.42-1.94c0.28-0.54,0.68-0.94,1.21-1.22s1.16-0.42,1.9-0.42s1.38,0.14,1.9,0.42s0.93,0.68,1.21,1.22
					c0.28,0.54,0.42,1.18,0.42,1.94v7.34c0,0.75-0.14,1.4-0.42,1.93c-0.28,0.53-0.68,0.94-1.21,1.22s-1.16,0.42-1.9,0.42
					S384.76,295.21,384.23,294.93z M387.16,293.53c0.28-0.15,0.5-0.37,0.65-0.65c0.15-0.29,0.22-0.63,0.22-1.04v-7.48
					c0-0.4-0.08-0.75-0.22-1.04c-0.15-0.29-0.37-0.5-0.65-0.65s-0.62-0.22-1.02-0.22c-0.4,0-0.74,0.08-1.02,0.22
					s-0.5,0.37-0.65,0.65c-0.15,0.29-0.22,0.63-0.22,1.04v7.48c0,0.4,0.07,0.75,0.22,1.04c0.15,0.29,0.37,0.5,0.65,0.65
					s0.62,0.22,1.02,0.22C386.53,293.75,386.87,293.68,387.16,293.53z"/>
				<path class="st1" d="M391.62,281h1.47l4.19,11.27l-0.27,0.25V281h1.58v14.19h-1.49l-4.17-11.1l0.27-0.25v11.36h-1.58V281z"/>
				<path class="st1" d="M400.54,281h1.63v14.2h-1.63V281z M401.51,281h5.13v1.53h-5.13V281z M401.51,287.38h4.64v1.54h-4.64V287.38
					z M401.51,293.67h5.13v1.53h-5.13V293.67z"/>
				<path class="st1" d="M409.55,294.97c-0.51-0.25-0.9-0.62-1.16-1.12c-0.26-0.5-0.39-1.11-0.39-1.84v-0.7l1.62-0.01v0.67
					c0,0.6,0.15,1.05,0.46,1.36c0.31,0.31,0.77,0.46,1.37,0.46c0.59,0,1.04-0.15,1.34-0.45c0.3-0.3,0.45-0.76,0.45-1.36v-1.04
					c0-0.4-0.09-0.75-0.28-1.03s-0.42-0.51-0.71-0.7c-0.29-0.19-0.66-0.39-1.13-0.62c-0.02-0.01-0.04-0.01-0.05-0.02
					c-0.01-0.01-0.03-0.01-0.04-0.02l-0.13-0.06c-0.62-0.3-1.13-0.58-1.52-0.84c-0.39-0.26-0.71-0.62-0.98-1.07
					c-0.27-0.45-0.4-1.02-0.4-1.69v-0.76c0-0.72,0.13-1.32,0.39-1.81c0.26-0.49,0.64-0.86,1.15-1.1c0.51-0.25,1.14-0.37,1.9-0.37
					c0.73,0,1.34,0.12,1.84,0.38c0.49,0.25,0.87,0.62,1.12,1.12s0.38,1.1,0.38,1.83v0.74h-1.61v-0.7c-0.01-0.59-0.15-1.04-0.44-1.35
					c-0.29-0.31-0.72-0.46-1.29-0.46c-0.6,0-1.05,0.14-1.36,0.43c-0.31,0.29-0.46,0.71-0.46,1.28v0.79c0,0.4,0.1,0.74,0.29,1.02
					c0.19,0.27,0.43,0.5,0.71,0.67s0.67,0.38,1.18,0.61c0.05,0.03,0.1,0.05,0.14,0.07c0.04,0.02,0.09,0.04,0.13,0.06
					c0.03,0.01,0.06,0.03,0.09,0.04s0.06,0.03,0.08,0.04c0.55,0.26,1,0.52,1.36,0.78c0.36,0.26,0.66,0.61,0.89,1.05
					c0.24,0.44,0.36,1,0.36,1.67v1.1c0,0.73-0.13,1.34-0.39,1.84c-0.26,0.5-0.64,0.87-1.14,1.12c-0.5,0.25-1.13,0.38-1.88,0.38
					C410.7,295.35,410.06,295.22,409.55,294.97z"/>
				<path class="st1" d="M422.25,281h1.7l3.28,14.2h-1.78l-2.35-11.96l-2.35,11.96h-1.78L422.25,281z M420.93,290.4h4.52v1.53h-4.52
					V290.4z"/>
				<path class="st1" d="M428.5,281h1.63v14.2h-1.63V281z M429.67,293.67h2.56c0.42,0,0.74-0.11,0.97-0.32
					c0.23-0.21,0.35-0.51,0.35-0.88v-2.19c0-0.36-0.06-0.67-0.19-0.93c-0.12-0.26-0.29-0.46-0.5-0.6c-0.21-0.14-0.45-0.21-0.73-0.21
					h-2.46v-1.52h2.46c0.39,0,0.69-0.13,0.91-0.4s0.32-0.65,0.32-1.15v-1.75c0-0.38-0.11-0.67-0.32-0.88s-0.51-0.31-0.89-0.31h-2.48
					V281h2.43c0.61,0,1.13,0.1,1.57,0.31c0.43,0.21,0.76,0.5,0.99,0.9s0.34,0.87,0.34,1.43v1.7c0,0.45-0.06,0.85-0.19,1.19
					c-0.12,0.34-0.3,0.63-0.53,0.85c-0.23,0.22-0.51,0.37-0.84,0.45c0.37,0.07,0.69,0.21,0.95,0.44c0.26,0.23,0.46,0.52,0.6,0.89
					s0.21,0.79,0.21,1.27v2.07c0,0.57-0.11,1.06-0.33,1.46c-0.22,0.4-0.54,0.71-0.96,0.92s-0.93,0.32-1.53,0.32h-2.7V293.67z"/>
				<path class="st1" d="M438.62,295.2h-1.64V281h1.64V295.2z"/>
				<path class="st1" d="M440.66,281h1.63v14.2h-1.63V281z M441.63,281h5.13v1.53h-5.13V281z M441.63,287.38h4.64v1.54h-4.64V287.38
					z M441.63,293.67h5.13v1.53h-5.13V293.67z"/>
				<path class="st1" d="M448.22,280.99h1.63v14.21h-1.63V280.99z M449.09,287.66h2.63c0.38,0,0.7-0.07,0.97-0.21
					c0.27-0.14,0.47-0.34,0.62-0.62c0.14-0.27,0.21-0.59,0.21-0.96v-1.46c0-0.39-0.07-0.73-0.21-1.02c-0.14-0.29-0.35-0.5-0.62-0.65
					c-0.27-0.15-0.59-0.22-0.97-0.22h-2.63v-1.53h2.49c0.75,0,1.39,0.12,1.92,0.38c0.53,0.25,0.94,0.62,1.22,1.1
					c0.28,0.49,0.42,1.07,0.42,1.74v1.66c0,0.7-0.14,1.29-0.42,1.79c-0.28,0.5-0.68,0.88-1.22,1.14s-1.18,0.39-1.93,0.39h-2.49
					V287.66z M451.77,288.75l1.5-0.45l2.27,6.89h-1.84L451.77,288.75z"/>
				<path class="st1" d="M456.27,281h6.89v1.53h-6.89V281z M458.9,282.16h1.64v13.04h-1.64V282.16z"/>
				<path class="st1" d="M465.77,294.93c-0.53-0.28-0.93-0.69-1.21-1.22c-0.28-0.53-0.42-1.18-0.42-1.93v-7.34
					c0-0.75,0.14-1.4,0.42-1.94c0.28-0.54,0.68-0.94,1.21-1.22s1.16-0.42,1.9-0.42s1.38,0.14,1.9,0.42s0.93,0.68,1.21,1.22
					c0.28,0.54,0.42,1.18,0.42,1.94v7.34c0,0.75-0.14,1.4-0.42,1.93c-0.28,0.53-0.68,0.94-1.21,1.22s-1.16,0.42-1.9,0.42
					S466.29,295.21,465.77,294.93z M468.69,293.53c0.28-0.15,0.5-0.37,0.65-0.65c0.15-0.29,0.22-0.63,0.22-1.04v-7.48
					c0-0.4-0.08-0.75-0.22-1.04c-0.15-0.29-0.37-0.5-0.65-0.65s-0.62-0.22-1.02-0.22c-0.4,0-0.74,0.08-1.02,0.22
					s-0.5,0.37-0.65,0.65c-0.15,0.29-0.22,0.63-0.22,1.04v7.48c0,0.4,0.07,0.75,0.22,1.04c0.15,0.29,0.37,0.5,0.65,0.65
					s0.62,0.22,1.02,0.22C468.07,293.75,468.41,293.68,468.69,293.53z"/>
				<path class="st1" d="M474.6,294.97c-0.51-0.25-0.9-0.62-1.16-1.12c-0.26-0.5-0.39-1.11-0.39-1.84v-0.7l1.62-0.01v0.67
					c0,0.6,0.15,1.05,0.46,1.36c0.31,0.31,0.77,0.46,1.37,0.46c0.59,0,1.04-0.15,1.34-0.45c0.3-0.3,0.45-0.76,0.45-1.36v-1.04
					c0-0.4-0.09-0.75-0.28-1.03s-0.42-0.51-0.71-0.7c-0.29-0.19-0.66-0.39-1.13-0.62c-0.02-0.01-0.04-0.01-0.05-0.02
					c-0.01-0.01-0.03-0.01-0.04-0.02l-0.13-0.06c-0.62-0.3-1.13-0.58-1.52-0.84c-0.39-0.26-0.71-0.62-0.98-1.07
					c-0.27-0.45-0.4-1.02-0.4-1.69v-0.76c0-0.72,0.13-1.32,0.39-1.81c0.26-0.49,0.64-0.86,1.15-1.1c0.51-0.25,1.14-0.37,1.9-0.37
					c0.73,0,1.34,0.12,1.84,0.38c0.49,0.25,0.87,0.62,1.12,1.12s0.38,1.1,0.38,1.83v0.74h-1.61v-0.7c-0.01-0.59-0.15-1.04-0.44-1.35
					c-0.29-0.31-0.72-0.46-1.29-0.46c-0.6,0-1.05,0.14-1.36,0.43c-0.31,0.29-0.46,0.71-0.46,1.28v0.79c0,0.4,0.1,0.74,0.29,1.02
					c0.19,0.27,0.43,0.5,0.71,0.67s0.67,0.38,1.18,0.61c0.05,0.03,0.1,0.05,0.14,0.07c0.04,0.02,0.09,0.04,0.13,0.06
					c0.03,0.01,0.06,0.03,0.09,0.04s0.06,0.03,0.08,0.04c0.55,0.26,1,0.52,1.36,0.78c0.36,0.26,0.66,0.61,0.89,1.05
					c0.24,0.44,0.36,1,0.36,1.67v1.1c0,0.73-0.13,1.34-0.39,1.84c-0.26,0.5-0.64,0.87-1.14,1.12c-0.5,0.25-1.13,0.38-1.88,0.38
					C475.75,295.35,475.11,295.22,474.6,294.97z"/>
				<path class="st1" d="M486.32,294.93c-0.53-0.28-0.93-0.69-1.21-1.22c-0.28-0.53-0.42-1.18-0.42-1.93v-7.34
					c0-0.75,0.14-1.4,0.42-1.94c0.28-0.54,0.68-0.94,1.21-1.22s1.16-0.42,1.9-0.42s1.38,0.14,1.9,0.42s0.93,0.68,1.21,1.22
					s0.42,1.18,0.42,1.94v7.34c0,0.75-0.14,1.4-0.42,1.93s-0.68,0.94-1.21,1.22s-1.16,0.42-1.9,0.42S486.85,295.21,486.32,294.93z
					 M489.25,293.53c0.28-0.15,0.5-0.37,0.65-0.65s0.22-0.63,0.22-1.04v-7.48c0-0.4-0.08-0.75-0.22-1.04s-0.37-0.5-0.65-0.65
					s-0.62-0.22-1.02-0.22s-0.74,0.08-1.02,0.22s-0.5,0.37-0.65,0.65c-0.15,0.29-0.22,0.63-0.22,1.04v7.48
					c0,0.4,0.07,0.75,0.22,1.04c0.15,0.29,0.37,0.5,0.65,0.65s0.62,0.22,1.02,0.22S488.96,293.68,489.25,293.53z"/>
				<path class="st1" d="M393.53,318.92c-0.5-0.29-0.87-0.7-1.13-1.25c-0.26-0.54-0.39-1.2-0.39-1.96v-7.22
					c0-0.77,0.13-1.42,0.39-1.97c0.26-0.54,0.64-0.96,1.13-1.25c0.49-0.29,1.08-0.43,1.78-0.43c0.7,0,1.29,0.14,1.79,0.43
					c0.49,0.29,0.87,0.7,1.13,1.25c0.26,0.54,0.39,1.2,0.39,1.96v0.57h-1.64v-0.57c0-0.43-0.07-0.8-0.2-1.11
					c-0.13-0.31-0.32-0.54-0.57-0.7c-0.25-0.16-0.55-0.24-0.9-0.24s-0.65,0.08-0.9,0.24c-0.25,0.16-0.44,0.39-0.57,0.7
					c-0.13,0.31-0.2,0.68-0.2,1.12v7.22c0,0.43,0.06,0.8,0.2,1.11c0.13,0.31,0.32,0.54,0.57,0.7c0.25,0.16,0.55,0.24,0.9,0.24
					c0.36,0,0.66-0.08,0.9-0.24s0.43-0.39,0.56-0.7c0.13-0.31,0.2-0.68,0.2-1.11v-0.57h1.64v0.57c0,0.76-0.13,1.41-0.39,1.96
					c-0.26,0.54-0.63,0.96-1.13,1.25c-0.5,0.29-1.09,0.43-1.79,0.43C394.61,319.35,394.02,319.2,393.53,318.92z"/>
				<path class="st1" d="M400.36,305h1.63v14.2h-1.63V305z M401.33,305h5.13v1.53h-5.13V305z M401.33,311.38h4.64v1.54h-4.64V311.38
					z M401.33,317.67h5.13v1.53h-5.13V317.67z"/>
				<path class="st1" d="M407.92,304.99h1.63v14.21h-1.63V304.99z M408.79,311.66h2.63c0.38,0,0.7-0.07,0.97-0.21
					c0.27-0.14,0.47-0.34,0.62-0.62c0.14-0.27,0.21-0.59,0.21-0.96v-1.46c0-0.39-0.07-0.73-0.21-1.02c-0.14-0.29-0.35-0.5-0.62-0.65
					c-0.27-0.15-0.59-0.22-0.97-0.22h-2.63v-1.53h2.49c0.75,0,1.39,0.12,1.92,0.38c0.53,0.25,0.94,0.62,1.22,1.1
					c0.28,0.49,0.42,1.07,0.42,1.74v1.66c0,0.7-0.14,1.29-0.42,1.79c-0.28,0.5-0.68,0.88-1.22,1.14s-1.18,0.39-1.93,0.39h-2.49
					V311.66z M411.47,312.75l1.5-0.45l2.27,6.89h-1.84L411.47,312.75z"/>
				<path class="st1" d="M416.95,304.99h1.63v14.21h-1.63V304.99z M417.82,311.66h2.63c0.38,0,0.7-0.07,0.97-0.21
					c0.27-0.14,0.47-0.34,0.62-0.62c0.14-0.27,0.21-0.59,0.21-0.96v-1.46c0-0.39-0.07-0.73-0.21-1.02c-0.14-0.29-0.35-0.5-0.62-0.65
					c-0.27-0.15-0.59-0.22-0.97-0.22h-2.63v-1.53h2.49c0.75,0,1.39,0.12,1.92,0.38c0.53,0.25,0.94,0.62,1.22,1.1
					c0.28,0.49,0.42,1.07,0.42,1.74v1.66c0,0.7-0.14,1.29-0.42,1.79c-0.28,0.5-0.68,0.88-1.22,1.14s-1.18,0.39-1.93,0.39h-2.49
					V311.66z M420.51,312.75l1.5-0.45l2.27,6.89h-1.84L420.51,312.75z"/>
				<path class="st1" d="M428.19,305h1.7l3.28,14.2h-1.78l-2.35-11.96l-2.35,11.96h-1.78L428.19,305z M426.87,314.4h4.52v1.53h-4.52
					V314.4z"/>
				<path class="st1" d="M434.44,305h1.63v14.2h-1.63V305z M435.41,317.67h3.03c0.34,0,0.61-0.1,0.79-0.3
					c0.18-0.2,0.27-0.49,0.27-0.86v-8.81c0-0.37-0.09-0.66-0.27-0.86c-0.18-0.2-0.44-0.3-0.79-0.3h-3.03V305h2.97
					c0.59,0,1.08,0.11,1.49,0.32s0.72,0.52,0.93,0.94c0.21,0.41,0.32,0.91,0.32,1.5v8.69c0,0.59-0.11,1.08-0.32,1.49
					s-0.53,0.72-0.94,0.94s-0.91,0.32-1.49,0.32h-2.96V317.67z"/>
				<path class="st1" d="M444.7,318.93c-0.53-0.28-0.93-0.69-1.21-1.22c-0.28-0.53-0.42-1.18-0.42-1.93v-7.34
					c0-0.75,0.14-1.4,0.42-1.94c0.28-0.54,0.68-0.94,1.21-1.22s1.16-0.42,1.9-0.42s1.38,0.14,1.9,0.42s0.93,0.68,1.21,1.22
					c0.28,0.54,0.42,1.18,0.42,1.94v7.34c0,0.75-0.14,1.4-0.42,1.93c-0.28,0.53-0.68,0.94-1.21,1.22s-1.16,0.42-1.9,0.42
					S445.22,319.21,444.7,318.93z M447.62,317.53c0.28-0.15,0.5-0.37,0.65-0.65c0.15-0.29,0.22-0.63,0.22-1.04v-7.48
					c0-0.4-0.08-0.75-0.22-1.04c-0.15-0.29-0.37-0.5-0.65-0.65s-0.62-0.22-1.02-0.22c-0.4,0-0.74,0.08-1.02,0.22
					s-0.5,0.37-0.65,0.65c-0.15,0.29-0.22,0.63-0.22,1.04v7.48c0,0.4,0.07,0.75,0.22,1.04c0.15,0.29,0.37,0.5,0.65,0.65
					s0.62,0.22,1.02,0.22C447,317.75,447.34,317.68,447.62,317.53z"/>
				<path class="st1" d="M453.53,318.97c-0.51-0.25-0.9-0.62-1.16-1.12c-0.26-0.5-0.39-1.11-0.39-1.84v-0.7l1.62-0.01v0.67
					c0,0.6,0.15,1.05,0.46,1.36c0.31,0.31,0.77,0.46,1.37,0.46c0.59,0,1.04-0.15,1.34-0.45c0.3-0.3,0.45-0.76,0.45-1.36v-1.04
					c0-0.4-0.09-0.75-0.28-1.03s-0.42-0.51-0.71-0.7c-0.29-0.19-0.66-0.39-1.13-0.62c-0.02-0.01-0.04-0.01-0.05-0.02
					c-0.01-0.01-0.03-0.01-0.04-0.02l-0.13-0.06c-0.62-0.3-1.13-0.58-1.52-0.84c-0.39-0.26-0.71-0.62-0.98-1.07
					c-0.27-0.45-0.4-1.02-0.4-1.69v-0.76c0-0.72,0.13-1.32,0.39-1.81c0.26-0.49,0.64-0.86,1.15-1.1c0.51-0.25,1.14-0.37,1.9-0.37
					c0.73,0,1.34,0.12,1.84,0.38c0.49,0.25,0.87,0.62,1.12,1.12s0.38,1.1,0.38,1.83v0.74h-1.61v-0.7c-0.01-0.59-0.15-1.04-0.44-1.35
					c-0.29-0.31-0.72-0.46-1.29-0.46c-0.6,0-1.05,0.14-1.36,0.43c-0.31,0.29-0.46,0.71-0.46,1.28v0.79c0,0.4,0.1,0.74,0.29,1.02
					c0.19,0.27,0.43,0.5,0.71,0.67s0.67,0.38,1.18,0.61c0.05,0.03,0.1,0.05,0.14,0.07c0.04,0.02,0.09,0.04,0.13,0.06
					c0.03,0.01,0.06,0.03,0.09,0.04s0.06,0.03,0.08,0.04c0.55,0.26,1,0.52,1.36,0.78c0.36,0.26,0.66,0.61,0.89,1.05
					c0.24,0.44,0.36,1,0.36,1.67v1.1c0,0.73-0.13,1.34-0.39,1.84c-0.26,0.5-0.64,0.87-1.14,1.12c-0.5,0.25-1.13,0.38-1.88,0.38
					C454.68,319.35,454.04,319.22,453.53,318.97z"/>
				<path class="st1" d="M388.51,353h1.7l3.28,14.2h-1.78l-2.35-11.96L387,367.2h-1.78L388.51,353z M387.19,362.4h4.52v1.53h-4.52
					V362.4z"/>
				<path class="st1" d="M395.99,366.92c-0.5-0.29-0.87-0.7-1.13-1.25c-0.26-0.54-0.39-1.2-0.39-1.96v-7.22
					c0-0.77,0.13-1.42,0.39-1.97c0.26-0.54,0.64-0.96,1.13-1.25c0.49-0.29,1.08-0.43,1.78-0.43c0.7,0,1.29,0.14,1.79,0.43
					c0.49,0.29,0.87,0.7,1.13,1.25c0.26,0.54,0.39,1.2,0.39,1.96v0.57h-1.64v-0.57c0-0.43-0.07-0.8-0.2-1.11
					c-0.13-0.31-0.32-0.54-0.57-0.7c-0.25-0.16-0.55-0.24-0.9-0.24s-0.65,0.08-0.9,0.24c-0.25,0.16-0.44,0.39-0.57,0.7
					c-0.13,0.31-0.2,0.68-0.2,1.12v7.22c0,0.43,0.06,0.8,0.2,1.11c0.13,0.31,0.32,0.54,0.57,0.7c0.25,0.16,0.55,0.24,0.9,0.24
					c0.36,0,0.66-0.08,0.9-0.24s0.43-0.39,0.56-0.7c0.13-0.31,0.2-0.68,0.2-1.11v-0.57h1.64v0.57c0,0.76-0.13,1.41-0.39,1.96
					c-0.26,0.54-0.63,0.96-1.13,1.25c-0.5,0.29-1.09,0.43-1.79,0.43C397.07,367.35,396.48,367.2,395.99,366.92z"/>
				<path class="st1" d="M404.35,366.92c-0.5-0.29-0.87-0.7-1.13-1.25c-0.26-0.54-0.39-1.2-0.39-1.96v-7.22
					c0-0.77,0.13-1.42,0.39-1.97c0.26-0.54,0.64-0.96,1.13-1.25c0.49-0.29,1.08-0.43,1.78-0.43c0.7,0,1.29,0.14,1.79,0.43
					c0.49,0.29,0.87,0.7,1.13,1.25c0.26,0.54,0.39,1.2,0.39,1.96v0.57h-1.64v-0.57c0-0.43-0.07-0.8-0.2-1.11
					c-0.13-0.31-0.32-0.54-0.57-0.7c-0.25-0.16-0.55-0.24-0.9-0.24s-0.65,0.08-0.9,0.24c-0.25,0.16-0.44,0.39-0.57,0.7
					c-0.13,0.31-0.2,0.68-0.2,1.12v7.22c0,0.43,0.06,0.8,0.2,1.11c0.13,0.31,0.32,0.54,0.57,0.7c0.25,0.16,0.55,0.24,0.9,0.24
					c0.36,0,0.66-0.08,0.9-0.24s0.43-0.39,0.56-0.7c0.13-0.31,0.2-0.68,0.2-1.11v-0.57h1.64v0.57c0,0.76-0.13,1.41-0.39,1.96
					c-0.26,0.54-0.63,0.96-1.13,1.25c-0.5,0.29-1.09,0.43-1.79,0.43C405.43,367.35,404.84,367.2,404.35,366.92z"/>
				<path class="st1" d="M411.18,353h1.63v14.2h-1.63V353z M412.15,353h5.13v1.53h-5.13V353z M412.15,359.38h4.64v1.54h-4.64V359.38
					z M412.15,365.67h5.13v1.53h-5.13V365.67z"/>
				<path class="st1" d="M420.19,366.97c-0.51-0.25-0.9-0.62-1.16-1.12c-0.26-0.5-0.39-1.11-0.39-1.84v-0.7l1.62-0.01v0.67
					c0,0.6,0.15,1.05,0.46,1.36c0.31,0.31,0.77,0.46,1.37,0.46c0.59,0,1.04-0.15,1.34-0.45c0.3-0.3,0.45-0.76,0.45-1.36v-1.04
					c0-0.4-0.09-0.75-0.28-1.03s-0.42-0.51-0.71-0.7c-0.29-0.19-0.66-0.39-1.13-0.62c-0.02-0.01-0.04-0.01-0.05-0.02
					c-0.01-0.01-0.03-0.01-0.04-0.02l-0.13-0.06c-0.62-0.3-1.13-0.58-1.52-0.84c-0.39-0.26-0.71-0.62-0.98-1.07
					c-0.27-0.45-0.4-1.02-0.4-1.69v-0.76c0-0.72,0.13-1.32,0.39-1.81c0.26-0.49,0.64-0.86,1.15-1.1c0.51-0.25,1.14-0.37,1.9-0.37
					c0.73,0,1.34,0.12,1.84,0.38c0.49,0.25,0.87,0.62,1.12,1.12s0.38,1.1,0.38,1.83v0.74h-1.61v-0.7c-0.01-0.59-0.15-1.04-0.44-1.35
					c-0.29-0.31-0.72-0.46-1.29-0.46c-0.6,0-1.05,0.14-1.36,0.43c-0.31,0.29-0.46,0.71-0.46,1.28v0.79c0,0.4,0.1,0.74,0.29,1.02
					c0.19,0.27,0.43,0.5,0.71,0.67s0.67,0.38,1.18,0.61c0.05,0.03,0.1,0.05,0.14,0.07c0.04,0.02,0.09,0.04,0.13,0.06
					c0.03,0.01,0.06,0.03,0.09,0.04s0.06,0.03,0.08,0.04c0.55,0.26,1,0.52,1.36,0.78c0.36,0.26,0.66,0.61,0.89,1.05
					c0.24,0.44,0.36,1,0.36,1.67v1.1c0,0.73-0.13,1.34-0.39,1.84c-0.26,0.5-0.64,0.87-1.14,1.12c-0.5,0.25-1.13,0.38-1.88,0.38
					C421.34,367.35,420.7,367.22,420.19,366.97z"/>
				<path class="st1" d="M428.98,366.93c-0.53-0.28-0.93-0.69-1.21-1.22c-0.28-0.53-0.42-1.18-0.42-1.93v-7.34
					c0-0.75,0.14-1.4,0.42-1.94c0.28-0.54,0.68-0.94,1.21-1.22s1.16-0.42,1.9-0.42s1.38,0.14,1.9,0.42s0.93,0.68,1.21,1.22
					c0.28,0.54,0.42,1.18,0.42,1.94v7.34c0,0.75-0.14,1.4-0.42,1.93c-0.28,0.53-0.68,0.94-1.21,1.22s-1.16,0.42-1.9,0.42
					S429.51,367.21,428.98,366.93z M431.91,365.53c0.28-0.15,0.5-0.37,0.65-0.65c0.15-0.29,0.22-0.63,0.22-1.04v-7.48
					c0-0.4-0.08-0.75-0.22-1.04c-0.15-0.29-0.37-0.5-0.65-0.65s-0.62-0.22-1.02-0.22c-0.4,0-0.74,0.08-1.02,0.22
					s-0.5,0.37-0.65,0.65c-0.15,0.29-0.22,0.63-0.22,1.04v7.48c0,0.4,0.07,0.75,0.22,1.04c0.15,0.29,0.37,0.5,0.65,0.65
					s0.62,0.22,1.02,0.22C431.28,365.75,431.63,365.68,431.91,365.53z"/>
				<path class="st1" d="M436.37,352.99H438v14.21h-1.63V352.99z M437.24,359.66h2.63c0.38,0,0.7-0.07,0.97-0.21
					c0.27-0.14,0.47-0.34,0.62-0.62c0.14-0.27,0.21-0.59,0.21-0.96v-1.46c0-0.39-0.07-0.73-0.21-1.02c-0.14-0.29-0.35-0.5-0.62-0.65
					c-0.27-0.15-0.59-0.22-0.97-0.22h-2.63v-1.53h2.49c0.75,0,1.39,0.12,1.92,0.38c0.53,0.25,0.94,0.62,1.22,1.1
					c0.28,0.49,0.42,1.07,0.42,1.74v1.66c0,0.7-0.14,1.29-0.42,1.79c-0.28,0.5-0.68,0.88-1.22,1.14s-1.18,0.39-1.93,0.39h-2.49
					V359.66z M439.92,360.75l1.5-0.45l2.27,6.89h-1.84L439.92,360.75z"/>
				<path class="st1" d="M447.13,367.2h-1.64V353h1.64V367.2z"/>
				<path class="st1" d="M450.79,366.93c-0.53-0.28-0.93-0.69-1.21-1.22c-0.28-0.53-0.42-1.18-0.42-1.93v-7.34
					c0-0.75,0.14-1.4,0.42-1.94c0.28-0.54,0.68-0.94,1.21-1.22s1.16-0.42,1.9-0.42s1.38,0.14,1.9,0.42s0.93,0.68,1.21,1.22
					c0.28,0.54,0.42,1.18,0.42,1.94v7.34c0,0.75-0.14,1.4-0.42,1.93c-0.28,0.53-0.68,0.94-1.21,1.22s-1.16,0.42-1.9,0.42
					S451.32,367.21,450.79,366.93z M453.72,365.53c0.28-0.15,0.5-0.37,0.65-0.65c0.15-0.29,0.22-0.63,0.22-1.04v-7.48
					c0-0.4-0.08-0.75-0.22-1.04c-0.15-0.29-0.37-0.5-0.65-0.65s-0.62-0.22-1.02-0.22c-0.4,0-0.74,0.08-1.02,0.22
					s-0.5,0.37-0.65,0.65c-0.15,0.29-0.22,0.63-0.22,1.04v7.48c0,0.4,0.07,0.75,0.22,1.04c0.15,0.29,0.37,0.5,0.65,0.65
					s0.62,0.22,1.02,0.22C453.09,365.75,453.43,365.68,453.72,365.53z"/>
				<path class="st1" d="M459.62,366.97c-0.51-0.25-0.9-0.62-1.16-1.12c-0.26-0.5-0.39-1.11-0.39-1.84v-0.7l1.62-0.01v0.67
					c0,0.6,0.15,1.05,0.46,1.36c0.31,0.31,0.77,0.46,1.37,0.46c0.59,0,1.04-0.15,1.34-0.45c0.3-0.3,0.45-0.76,0.45-1.36v-1.04
					c0-0.4-0.09-0.75-0.28-1.03s-0.42-0.51-0.71-0.7c-0.29-0.19-0.66-0.39-1.13-0.62c-0.02-0.01-0.04-0.01-0.05-0.02
					c-0.01-0.01-0.03-0.01-0.04-0.02l-0.13-0.06c-0.62-0.3-1.13-0.58-1.52-0.84c-0.39-0.26-0.71-0.62-0.98-1.07
					c-0.27-0.45-0.4-1.02-0.4-1.69v-0.76c0-0.72,0.13-1.32,0.39-1.81c0.26-0.49,0.64-0.86,1.15-1.1c0.51-0.25,1.14-0.37,1.9-0.37
					c0.73,0,1.34,0.12,1.84,0.38c0.49,0.25,0.87,0.62,1.12,1.12s0.38,1.1,0.38,1.83v0.74h-1.61v-0.7c-0.01-0.59-0.15-1.04-0.44-1.35
					c-0.29-0.31-0.72-0.46-1.29-0.46c-0.6,0-1.05,0.14-1.36,0.43c-0.31,0.29-0.46,0.71-0.46,1.28v0.79c0,0.4,0.1,0.74,0.29,1.02
					c0.19,0.27,0.43,0.5,0.71,0.67s0.67,0.38,1.18,0.61c0.05,0.03,0.1,0.05,0.14,0.07c0.04,0.02,0.09,0.04,0.13,0.06
					c0.03,0.01,0.06,0.03,0.09,0.04s0.06,0.03,0.08,0.04c0.55,0.26,1,0.52,1.36,0.78c0.36,0.26,0.66,0.61,0.89,1.05
					c0.24,0.44,0.36,1,0.36,1.67v1.1c0,0.73-0.13,1.34-0.39,1.84c-0.26,0.5-0.64,0.87-1.14,1.12c-0.5,0.25-1.13,0.38-1.88,0.38
					C460.77,367.35,460.13,367.22,459.62,366.97z"/>
			</g>
		</g>
		<g>
			<path class="st4" d="M438.25,116.08c0,0,0.02,2.93,0.9,4.46c-2.98,1.39-5.63,2.42-8.15,3.07c-2.17,0.55-4.23,0.82-6.33,0.79
				c-1.89-0.02-3.8-0.29-5.82-0.82c-2.44-0.63-5.04-1.64-7.96-3.04h-0.01h0.01c1.27-1.08,1.31-4.47,1.31-4.47
				C422.16,119.74,428.17,120.23,438.25,116.08c0.01-0.01,0.02-0.01,0.02-0.01"/>
			<g>
				<path class="st0" d="M441.84,99.22c0.48,0.92,0.58,1.99,0.18,2.94c-1.66,4.03-3.68,9.74-3.78,13.91
					c-10.07,4.15-16.09,3.66-26.04-0.01h-0.01c-0.09-4.17-2.11-9.88-3.77-13.9c-0.39-0.96-0.29-2.03,0.18-2.94
					c2.22-4.3,0.54-8.86,0.54-8.86l5.2-1.98c-2.94,16.01,9.08,4.11,10.88,16.32c1.79-12.21,13.82-0.31,10.88-16.32l5.19,1.98
					C441.3,90.36,439.62,94.93,441.84,99.22z"/>
				<path class="st0" d="M472.28,166.75c0.35,3.57-2.45,6.67-6.04,6.67h-18.86h-22.69h-30.13h-10.03c-3.61,0-6.43-3.13-6.05-6.73
					l0.07-0.66c10.77-32.77,24.62-42.15,31.29-44.83c0.41-0.17,0.75-0.39,1.05-0.68h0.01c2.92,1.4,5.52,2.41,7.96,3.04
					c2.02,0.53,3.93,0.8,5.82,0.82c2.09,0.03,4.16-0.24,6.33-0.79c2.52-0.65,5.17-1.68,8.15-3.07l0.22-0.2
					c0.32,0.38,0.74,0.68,1.24,0.88c6.73,2.7,20.71,12.18,31.52,45.48L472.28,166.75z"/>
			</g>
			<g>
				<g id="XMLID_00000037691187941278600680000001588345041082806947_">
					<path class="st3" d="M412.2,116.07c9.96,3.68,15.97,4.16,26.04,0.01c0.01-0.01,0.02-0.01,0.02-0.01"/>
					<path class="st3" d="M410.89,120.53c0.99-0.96,1.36-2.55,1.31-4.47c-0.09-4.17-2.11-9.88-3.77-13.9
						c-0.39-0.96-0.29-2.03,0.18-2.94c2.22-4.3,0.54-8.86,0.54-8.86l5.2-1.98c-2.94,16.01,9.08,4.11,10.88,16.32
						c1.79-12.21,13.82-0.31,10.88-16.32l5.19,1.98c0,0-1.68,4.57,0.54,8.86c0.48,0.92,0.58,1.99,0.18,2.94
						c-1.66,4.03-3.68,9.74-3.78,13.91c-0.04,1.74,0.25,3.2,1.05,4.18c0.02,0.02,0.04,0.05,0.07,0.07c0.32,0.38,0.74,0.68,1.24,0.88
						c6.73,2.7,20.71,12.18,31.52,45.48l0.16,0.06c0.35,3.57-2.45,6.67-6.04,6.67h-18.86h-22.69h-30.13h-10.03
						c-3.61,0-6.43-3.13-6.05-6.73l0.07-0.66c10.77-32.77,24.62-42.15,31.29-44.83C410.25,121.04,410.59,120.82,410.89,120.53"/>
					<path class="st3" d="M439.15,120.53c-2.98,1.39-5.63,2.42-8.15,3.07c-2.17,0.55-4.23,0.82-6.33,0.79
						c-1.89-0.02-3.8-0.29-5.82-0.82c-2.44-0.63-5.04-1.64-7.96-3.04h-0.01"/>
					<path class="st3" d="M418.08,123.36c-12.74,13.56-20.56,31.28-23.53,49.64"/>
					<path class="st3" d="M432.48,123.18c5.01,4.63,14.7,28.8,17.03,49.84"/>
					<path class="st3" d="M424.66,124.84c0.81,16.04,0.82,32.13,0.02,48.17"/>
				</g>
			</g>
		</g>
		<g>
			<circle class="st5" cx="405.8" cy="251.27" r="7.01"/>
			<circle class="st6" cx="444.95" cy="251.27" r="7.01"/>
			<circle class="st7" cx="425.38" cy="251.27" r="7.01"/>
		</g>
	</g>
</g>
</svg>
