<?xml version="1.0" encoding="utf-8"?>
<!-- Generator: Adobe Illustrator 27.0.0, SVG Export Plug-In . SVG Version: 6.00 Build 0)  -->
<svg version="1.1" id="Capa_1" xmlns="http://www.w3.org/2000/svg" xmlns:xlink="http://www.w3.org/1999/xlink" x="0px" y="0px"
	 viewBox="0 0 85.04 85.04" style="enable-background:new 0 0 85.04 85.04;" xml:space="preserve">
<style type="text/css">
	.st0{fill-rule:evenodd;clip-rule:evenodd;fill:#E9E0CF;}
</style>
<g>
	<path class="st0" d="M62.07,52.05c-1.07-0.59-6.34-3.43-7.33-3.83c-0.99-0.4-1.71-0.61-2.48,0.46c-0.77,1.06-2.95,3.45-3.62,4.15
		c-1.26,1.33-3.71-0.42-5.08-1.18c-1.58-0.88-3.64-2.23-5.88-4.38c-3.14-3.02-5.2-6.67-5.79-7.79c-0.91-1.71,2.28-3.7,3.26-5.52
		c0.05-0.1,0.11-0.21,0.17-0.32c0.39-0.72,0.23-1.36-0.02-1.92c-0.25-0.55-2.24-6.01-3.06-8.23c-1.05-2.82-5.7-2.59-7.44-0.83
		c-1.04,1.06-3.96,3.59-4.16,8.97c-0.2,5.37,3.52,10.71,4.04,11.46c0.52,0.75,7.1,12.4,18.04,17.19c6.47,2.83,11.63,5.46,17.87,1.22
		c1.23-0.83,2.28-1.85,2.71-2.91c1.01-2.52,1.09-4.7,0.83-5.17C63.86,52.94,63.14,52.63,62.07,52.05z"/>
	<path class="st0" d="M72.43,12.36C64.47,4.39,53.89,0,42.61,0C19.38,0,0.47,18.9,0.46,42.14c0,7.43,1.94,14.68,5.63,21.07
		L0.11,85.04l22.35-5.86c6.16,3.36,13.09,5.13,20.14,5.13h0.02c0,0,0,0,0,0c23.23,0,42.14-18.9,42.15-42.14
		C84.77,30.91,80.39,20.32,72.43,12.36L72.43,12.36z M42.61,77.19L42.61,77.19H42.6c-6.29,0-12.45-1.69-17.83-4.88l-1.28-0.76
		l-13.26,3.48l3.54-12.92l-0.83-1.33C9.43,55.2,7.57,48.76,7.58,42.14C7.58,22.83,23.3,7.12,42.63,7.12
		c9.36,0,18.15,3.65,24.77,10.27c6.61,6.62,10.26,15.42,10.25,24.78C77.64,61.48,61.92,77.19,42.61,77.19z"/>
</g>
</svg>
